<?xml version="1.0" encoding="utf-8"?>
<!-- Generator: Adobe Illustrator 16.0.0, SVG Export Plug-In . SVG Version: 6.00 Build 0)  -->
<!DOCTYPE svg PUBLIC "-//W3C//DTD SVG 1.1//EN" "http://www.w3.org/Graphics/SVG/1.1/DTD/svg11.dtd">
<svg version="1.1" id="Layer_1" xmlns="http://www.w3.org/2000/svg" xmlns:xlink="http://www.w3.org/1999/xlink" x="0px" y="0px"
	 width="250px" height="100px" viewBox="0 0 250 100" enable-background="new 0 0 250 100" xml:space="preserve">
<g>
	<g>
		<g>
			<g>
				<path fill="#FFFFFF" d="M122.416,28.254c4.479-1.768,9.252-2.829,11.49-2.829c11.197,0,17.503,7.013,17.503,14.32
					c0,5.304-2.652,10.313-8.722,14.556c-5.01,3.477-11.256,5.834-16.5,5.834c-3.418,0-7.131-1.179-9.076-2.711
					c-1.886-1.474-2.239-2.416-2.239-3.595c0-1.414,1.296-3.477,2.887-4.655c1.062-0.707,2.004-0.354,3.183,0.766
					c2.181,1.886,6.364,5.246,11.256,5.246c5.48,0,8.072-4.715,8.072-10.844c0-7.779-5.008-12.788-12.905-12.788
					c-4.065,0-7.896,1.12-9.664,1.768l3.948-27.638h27.991l0.473,0.825l-2.889,8.427h-22.393L122.416,28.254z"/>
			</g>
			<g>
				<path fill="#FFFFFF" d="M77.583,57.029v-7.282l25.46-18.667v-0.212L77.583,12.2V4.918l30.553,22.414v7.142L77.583,57.029z"/>
			</g>
		</g>
		<rect x="63.184" y="38.329" fill="none" width="124.179" height="72.537"/>
		<text transform="matrix(0.6667 0 0 1 154.4707 53.2188)" fill="#FFFFFF" font-family="'SegoeUI'" font-size="30.1717">Ans</text>
		<text transform="matrix(0.6667 0 0 1 75.5854 89.4238)" fill="#FFFFFF" font-family="'SegoeUI'" font-size="30.1717">d’Expérience</text>
	</g>
</g>
</svg>
