<?xml version="1.0" encoding="utf-8"?>
<!-- Generator: Adobe Illustrator 16.0.0, SVG Export Plug-In . SVG Version: 6.00 Build 0)  -->
<!DOCTYPE svg PUBLIC "-//W3C//DTD SVG 1.1//EN" "http://www.w3.org/Graphics/SVG/1.1/DTD/svg11.dtd">
<svg version="1.1" id="Layer_1" xmlns="http://www.w3.org/2000/svg" xmlns:xlink="http://www.w3.org/1999/xlink" x="0px" y="0px"
	 width="250px" height="100px" viewBox="0 0 250 100" enable-background="new 0 0 250 100" xml:space="preserve">
<g>
	<rect x="-734.697" y="-445" display="none" fill="#3C3B3B" width="1024" height="633"/>
	<g>
		<g>
			<g>
				<g>
					<path fill="#FFFFFF" d="M37.814,23.461c-0.917,0.002-1.364,0.689-1.353,2.041c0.013,1.343,0.472,2.01,1.376,2.002
						c0.465-0.006,0.8-0.174,1.022-0.494c0.219-0.333,0.327-0.842,0.322-1.531c-0.004-0.69-0.128-1.208-0.353-1.532
						C38.603,23.616,38.261,23.454,37.814,23.461z M45.435,58.156c-4.293-0.304-4.822-1.179-4.885-8.173l-0.021-2.312l-1.254,0.012
						l-1.451-2.516l-0.46,0.006l0.023,2.522l-1.819,0.02l-0.065-6.938l2.208-0.023c1.829-0.018,2.751,0.657,2.763,2.025
						c0.008,0.804-0.364,1.429-1.121,1.877l1.165,1.765l-0.085-9.253c-0.1,0.177-0.215,0.343-0.355,0.486
						c-0.495,0.505-1.214,0.763-2.152,0.772c-0.919,0.007-1.629-0.23-2.121-0.711c-0.498-0.479-0.751-1.17-0.758-2.081l-0.04-4.218
						l1.826-0.016l0.038,4.07c0.004,0.491,0.095,0.844,0.278,1.067c0.183,0.218,0.441,0.327,0.788,0.325
						c0.372-0.005,0.641-0.116,0.809-0.34c0.16-0.22,0.241-0.582,0.239-1.083l-0.036-4.06l1.431-0.015l-0.03-3.323
						c-0.022,0.026-0.037,0.06-0.061,0.085c-0.548,0.615-1.361,0.924-2.435,0.936c-1.053,0.007-1.862-0.289-2.437-0.896
						c-0.563-0.607-0.859-1.49-0.867-2.661c-0.011-1.151,0.262-2.038,0.816-2.651c0.556-0.615,1.368-0.926,2.431-0.938
						c1.074-0.01,1.889,0.287,2.448,0.886c0.021,0.022,0.035,0.053,0.056,0.076l-0.058-6.234c-0.039-4.372,0.012-8.4,0.165-10.413
						c-0.179-0.699-0.797-0.953-1.233-0.951c-0.611,0.003-3.922,1.697-7.763,2.87c-3.49,0.994-7.592,1.993-11.174,2.552
						c-0.695,0.534-0.591,2.629,0.202,3.059l4.029,0.492c3.856,0.49,4.216,1.8,4.269,7.572l0.258,28.26
						c0.066,7-0.448,7.879-4.733,8.267l-3.583,0.297c-0.784,0.532-0.677,2.808,0.2,3.061c3.152-0.205,8.398-0.342,14.176-0.394
						c5.423-0.05,10.671-0.011,13.821,0.137c0.874-0.268,0.939-2.546,0.146-3.065L45.435,58.156z M35.69,20.313
						c0.106,0.022,0.226,0.035,0.355,0.029c0.302,0,0.518-0.093,0.645-0.283c0.128-0.19,0.188-0.509,0.183-0.959l-0.061-6.424
						l1.825-0.017l0.061,6.257c0.009,0.942-0.184,1.657-0.578,2.142c-0.396,0.483-0.989,0.732-1.789,0.742
						c-0.331,0.005-0.641-0.028-0.944-0.089l-0.017-1.459C35.473,20.272,35.577,20.291,35.69,20.313z M40.203,56.075
						c-0.213,0.333-0.514,0.597-0.91,0.787c-0.402,0.188-0.867,0.284-1.404,0.288c-0.446,0.005-0.821-0.022-1.132-0.087
						c-0.301-0.063-0.62-0.174-0.95-0.331l-0.014-1.671c0.35,0.181,0.709,0.32,1.086,0.421c0.371,0.099,0.719,0.15,1.034,0.146
						c0.269,0,0.466-0.054,0.592-0.151c0.123-0.099,0.184-0.224,0.184-0.374c0-0.096-0.025-0.178-0.075-0.249
						c-0.051-0.07-0.137-0.146-0.243-0.216c-0.113-0.07-0.419-0.219-0.904-0.438c-0.441-0.199-0.771-0.396-0.993-0.588
						s-0.387-0.411-0.496-0.66c-0.109-0.251-0.161-0.548-0.165-0.883c-0.005-0.641,0.214-1.141,0.663-1.506
						c0.449-0.358,1.064-0.549,1.856-0.556c0.696-0.005,1.408,0.154,2.135,0.483l-0.545,1.452c-0.628-0.295-1.175-0.439-1.633-0.432
						c-0.234,0.002-0.406,0.047-0.517,0.132c-0.104,0.087-0.157,0.191-0.155,0.321c0,0.134,0.068,0.259,0.207,0.364
						c0.14,0.108,0.513,0.294,1.118,0.578c0.579,0.266,0.983,0.545,1.218,0.852c0.229,0.31,0.342,0.695,0.347,1.166
						C40.508,55.355,40.409,55.739,40.203,56.075z M37.336,42.176l0.013,1.591l0.339-0.004c0.639-0.007,0.95-0.298,0.944-0.879
						c-0.004-0.479-0.314-0.713-0.938-0.711L37.336,42.176z M91.314,5.766c-1.132,0.183-7.17,0.329-12.687,0.38l-16.791,0.15
						c-5.521,0.052-7.611-0.013-10.503-0.161c-0.761,3.33-1.843,8.855-3.29,13.155c0.356,0.956,2.284,1.377,2.979,0.583
						c1.977-3.693,2.85-4.315,7.917-4.365l18.55-0.167c1.311-0.014,2.538,0.24,2.553,1.38c0.015,1.488-0.934,3.51-2.82,6.937
						L54.579,63.851c0.191,1.924,2.74,2.951,4.22,2.674l24.789-44.851c3.614-6.507,6.369-11.257,8.526-14.52
						C92.2,6.635,91.932,5.932,91.314,5.766z"/>
				</g>
			</g>
		</g>
		<rect x="0.464" y="38.329" fill="none" width="248.36" height="72.537"/>
		<text transform="matrix(1 0 0 1.5 90.4824 53.2178)"><tspan x="0" y="0" fill="#FFFFFF" font-family="'SegoeUI'" font-size="20.1145">pour se Former et </tspan><tspan x="-76.971" y="24.137" fill="#FFFFFF" font-family="'SegoeUI'" font-size="20.1145">Approfondir des Technnos </tspan></text>
	</g>
</g>
</svg>
