<?xml version="1.0" encoding="utf-8"?>
<!-- Generator: Adobe Illustrator 16.0.0, SVG Export Plug-In . SVG Version: 6.00 Build 0)  -->
<!DOCTYPE svg PUBLIC "-//W3C//DTD SVG 1.1//EN" "http://www.w3.org/Graphics/SVG/1.1/DTD/svg11.dtd">
<svg version="1.1" id="Layer_1" xmlns="http://www.w3.org/2000/svg" xmlns:xlink="http://www.w3.org/1999/xlink" x="0px" y="0px"
	 width="240px" height="100px" viewBox="0 0 240 100" enable-background="new 0 0 240 100" xml:space="preserve">
<g>
	<rect x="-37.697" y="-445" display="none" fill="#3C3B3B" width="1024" height="633"/>
	<g>
		<g>
			<g>
				<path fill="#FFFFFF" d="M80.821,27.271C78.758,14.535,67.684,6.203,55.442,8.181c-6.718,1.088-12.905,5.461-16.382,11.505
					c-5.209-4.642-12.458-6.844-19.171-5.757C7.639,15.908-0.246,27.3,1.813,40.04C4.338,55.654,19.825,66.224,43.42,81.807
					l6.462,4.859l4.601-6.646C71.97,57.797,83.343,42.89,80.821,27.271z M10.604,46.488l-0.515-3.162l17.632-14.109l0.856,5.31
					l-12.23,9.171l14.371,4.059l0.853,5.284L10.604,46.488z M44.795,55.273l-5.417,0.878l5.429-34.065l5.41-0.874L44.795,55.273z
					 M56.667,48.985l-0.856-5.288l12.363-8.376l-14.497-4.85l-0.86-5.312l21.179,7.836l0.511,3.166L56.667,48.985z"/>
			</g>
		</g>
		<rect x="27.884" y="38.329" fill="none" width="172.125" height="72.537"/>
		<text transform="matrix(1 0 0 1.5 105.5264 53.2178)"><tspan x="0" y="0" fill="#FFFFFF" font-family="'SegoeUI'" font-size="20.1145">Passion de</tspan><tspan x="-29.798" y="24.137" fill="#FFFFFF" font-family="'SegoeUI'" font-size="20.1145">l’Informatique</tspan></text>
	</g>
</g>
</svg>
