<?xml version="1.0" encoding="utf-8"?>
<!-- Generator: Adobe Illustrator 16.0.0, SVG Export Plug-In . SVG Version: 6.00 Build 0)  -->
<!DOCTYPE svg PUBLIC "-//W3C//DTD SVG 1.1//EN" "http://www.w3.org/Graphics/SVG/1.1/DTD/svg11.dtd">
<svg version="1.1" id="Layer_1" xmlns="http://www.w3.org/2000/svg" xmlns:xlink="http://www.w3.org/1999/xlink" x="0px" y="0px"
	 width="256px" height="256px" viewBox="0 0 256 256" enable-background="new 0 0 256 256" xml:space="preserve">
<g id="Hexagone">
	<g id="Hexogone">
		<g opacity="0.4">
			<g>
				<path fill="#FFFFFF" d="M29.567,70.896v114.208l98.435,57.098l98.432-57.098V70.896L128.002,13.8L29.567,70.896z M128.002,0
					L17.822,63.999V192l110.18,64l110.176-64V63.999L128.002,0z M231.33,187.928l-103.328,59.932L24.67,187.928V68.076L128.002,8.14
					L231.33,68.076V187.928z"/>
			</g>
		</g>
	</g>
</g>
<g id="Layer_1_1_">
	<g id="Accompagnement_1_">
		<g id="Accompagnement_2_">
			<path fill="#FFFFFF" d="M197.119,102.763h-86.004c-0.136,0-0.265,0.034-0.398,0.041c0.968,1.795,1.767,3.646,2.408,5.535h84.232
				c0.338,0,0.607,0.272,0.607,0.614l0.01,50.341c0,0.337-0.279,0.608-0.617,0.608h-86.479c-0.336,0-0.61-0.271-0.61-0.608v-21.489
				c-1.569,2.741-3.518,5.326-5.851,7.674v13.306c0,3.702,2.998,6.704,6.7,6.704h32.968v9.988h-13.652
				c-2.319,0-4.203,1.879-4.203,4.195c0,2.318,1.884,4.199,4.203,4.199h47.351c2.305,0,4.194-1.881,4.194-4.199
				c0-2.316-1.891-4.195-4.194-4.195h-13.628v-9.988h32.962c3.702,0,6.704-3.002,6.704-6.704v-49.322
				C203.822,105.762,200.822,102.763,197.119,102.763z"/>
			<rect x="143.746" y="165.471" fill="#FFFFFF" width="20.746" height="1.033"/>
			<g>
				<g>
					<path fill="#FFFFFF" d="M82.688,91.301l2.496-2.498c-10.144-2.122-21.123,0.754-28.998,8.63
						c-11.009,11.01-12.247,28.094-3.711,40.471l-4.458,4.451l11.233,1.022l-1.021-11.229l-3.677,3.678
						c-7.424-11.214-6.203-26.468,3.677-36.351C64.899,92.808,74.02,90.081,82.688,91.301z"/>
					<path fill="#FFFFFF" d="M107.242,95.391l-11.235-1.023l1.026,11.231l3.979-3.981c9.294,11.343,8.646,28.112-1.938,38.7
						c-7.532,7.529-18.192,10.035-27.802,7.504l-2.327,2.326c10.966,3.511,23.467,0.914,32.17-7.793
						c11.715-11.711,12.362-30.31,1.947-42.792L107.242,95.391z"/>
				</g>
			</g>
			<g>
				<path fill="#FFFFFF" d="M125.567,127.774l-10.592-5.286v-1.727l10.592-5.989v2.898l-7.3,3.831l7.3,3.391V127.774z"/>
				<path fill="#FFFFFF" d="M138.223,112.443l-5.813,17.653h-2.953l5.81-17.653H138.223L138.223,112.443z"/>
				<path fill="#FFFFFF" d="M139.264,124.89l7.301-3.396l-7.301-3.83v-2.895l10.596,5.99v1.727l-10.596,5.286V124.89L139.264,124.89
					z"/>
			</g>
		</g>
	</g>
</g>
</svg>
