<?xml version="1.0" encoding="utf-8"?>
<!-- Generator: Adobe Illustrator 16.0.0, SVG Export Plug-In . SVG Version: 6.00 Build 0)  -->
<!DOCTYPE svg PUBLIC "-//W3C//DTD SVG 1.1//EN" "http://www.w3.org/Graphics/SVG/1.1/DTD/svg11.dtd">
<svg version="1.1" id="Layer_1" xmlns="http://www.w3.org/2000/svg" xmlns:xlink="http://www.w3.org/1999/xlink" x="0px" y="0px"
	 width="256px" height="256px" viewBox="0 0 256 256" enable-background="new 0 0 256 256" xml:space="preserve">
<g>
	<g opacity="0.4">
		<g>
			<linearGradient id="SVGID_1_" gradientUnits="userSpaceOnUse" x1="17.8232" y1="128" x2="238.1768" y2="128">
				<stop  offset="0" style="stop-color:#FFFFFF"/>
				<stop  offset="1" style="stop-color:#FFFFFF"/>
			</linearGradient>
			<path fill="url(#SVGID_1_)" d="M29.567,70.896v114.208L128,242.197l98.431-57.094V70.896L128,13.8L29.567,70.896z M128,0
				L17.823,63.999v128L128,256l110.177-64.001v-128L128,0z M231.33,187.926L128,247.856L24.67,187.926V68.075L128,8.14
				l103.33,59.936V187.926z"/>
		</g>
	</g>
	<g id="Architecture_1_">
		<g>
			<path fill="#FFFFFF" d="M190.16,85.947h-71.225c1.954,1.767,3.717,3.735,5.203,5.918h66.279c0.356,0,0.646,0.288,0.646,0.647
				v53.414h0.004c0,0.359-0.292,0.652-0.65,0.652H98.492c-0.359,0-0.65-0.293-0.65-0.652v-2.726
				c-0.339,0.015-0.667,0.056-1.005,0.056c-1.778,0-3.51-0.183-5.212-0.449v2.574c0,3.923,3.188,7.108,7.12,7.108h35.042v10.602
				h-14.512c-2.465,0-4.465,1.995-4.465,4.45c0,2.461,2,4.459,4.465,4.459h50.334c2.46,0,4.46-1.998,4.46-4.459
				c0-2.455-2-4.45-4.46-4.45h-14.49V152.49h35.045c3.934,0,7.119-3.177,7.119-7.108V93.054
				C197.283,89.13,194.095,85.947,190.16,85.947z"/>
			<g>
				<path fill="#FFFFFF" d="M89.695,117.932l-11.486-5.725v-1.867l11.486-6.482v3.139l-7.912,4.139l7.912,3.672V117.932z"/>
				<path fill="#FFFFFF" d="M103.418,101.339l-6.304,19.108H93.91l6.303-19.108H103.418L103.418,101.339z"/>
				<path fill="#FFFFFF" d="M104.549,114.806l7.91-3.672l-7.91-4.142v-3.136l11.487,6.482v1.867l-11.487,5.725V114.806
					L104.549,114.806z"/>
			</g>
			<g>
				<path fill="#FFFFFF" d="M81.747,95.34c8.406-8.393,22.036-8.393,30.443,0c8.405,8.39,8.405,21.992,0,30.381
					c-8.408,8.39-22.038,8.39-30.443,0C73.336,117.332,73.336,103.73,81.747,95.34L81.747,95.34z M76.874,90.476
					c-9.709,9.691-10.923,24.653-3.642,35.661l1.382,1.875l-2.642,2.639l-0.472,0.044c-0.849,0.166-1.66,0.578-2.313,1.23
					l-22.245,22.207c-1.755,1.749-1.755,4.58,0,6.331c1.75,1.748,4.591,1.748,6.343,0l22.245-22.205
					c0.658-0.658,1.068-1.462,1.232-2.313l0.044-0.47l2.645-2.638l1.881,1.381c11.028,7.266,26.018,6.056,35.731-3.635
					c11.093-11.073,11.093-29.036,0-40.108C105.963,79.402,87.969,79.402,76.874,90.476L76.874,90.476z"/>
			</g>
		</g>
	</g>
</g>
</svg>
