<?xml version="1.0" encoding="utf-8"?>
<!-- Generator: Adobe Illustrator 16.0.0, SVG Export Plug-In . SVG Version: 6.00 Build 0)  -->
<!DOCTYPE svg PUBLIC "-//W3C//DTD SVG 1.1//EN" "http://www.w3.org/Graphics/SVG/1.1/DTD/svg11.dtd">
<svg version="1.1" id="Layer_1" xmlns="http://www.w3.org/2000/svg" xmlns:xlink="http://www.w3.org/1999/xlink" x="0px" y="0px"
	 width="256px" height="256px" viewBox="0 0 256 256" enable-background="new 0 0 256 256" xml:space="preserve">
<g>
	<g opacity="0.4">
		<g>
			<path fill="#FFFFFF" d="M29.567,70.896v114.208l98.435,57.095l98.432-57.095V70.896L128.001,13.8L29.567,70.896z M128.001,0
				L17.822,63.999V192l110.179,64l110.176-64V63.999L128.001,0z M231.33,187.927l-103.329,59.933L24.67,187.927V68.075L128.001,8.14
				L231.33,68.075V187.927z"/>
		</g>
	</g>
	<g id="Conseil">
		<g>
			<g>
				<path fill="#FFFFFF" d="M62.616,111.721l-15.435,1.934c-1.285,0.158-2.199,1.391-2.032,2.729l3.912,31.219
					c0.167,1.344,1.357,2.312,2.644,2.149l15.433-1.932c1.284-0.16,2.198-1.39,2.031-2.731l-3.911-31.221
					C65.09,112.521,63.899,111.559,62.616,111.721z M52.651,114.754l4.936-0.616c0.156-0.022,0.3,0.095,0.319,0.257
					c0.022,0.165-0.09,0.313-0.245,0.332l-4.937,0.619c-0.157,0.017-0.3-0.1-0.319-0.26
					C52.384,114.921,52.494,114.773,52.651,114.754z M59.269,147.566c-0.644,0.082-1.238-0.4-1.321-1.072
					c-0.085-0.678,0.37-1.286,1.015-1.369c0.646-0.08,1.239,0.398,1.322,1.075C60.369,146.875,59.914,147.486,59.269,147.566z
					 M67.284,143.216l-16.854,2.116l-3.476-27.723l16.858-2.113L67.284,143.216z"/>
			</g>
			<path fill="#FFFFFF" d="M203.553,148.114l-8.92-3.052c-0.988-0.34-2-0.418-2.932-0.233c-1.25,0.248-2.156,0.939-2.471,1.893
				c-0.227,0.65-0.152,1.378,0.205,2.104c0.543,1.111,1.699,2.053,3.08,2.525l8.916,3.055c0.984,0.338,1.998,0.42,2.93,0.233
				c1.254-0.248,2.156-0.939,2.477-1.893C207.414,151.043,205.91,148.92,203.553,148.114z"/>
			<path fill="#FFFFFF" d="M203.744,119.021l-9.242,1.847c-2.447,0.489-4.209,2.395-3.863,4.163
				c0.346,1.764,2.707,2.846,5.145,2.358l9.242-1.849c2.445-0.49,4.209-2.393,3.861-4.161
				C208.539,119.613,206.182,118.534,203.744,119.021z"/>
			<path fill="#FFFFFF" d="M186.721,104.985l7.092-6.252c1.871-1.652,2.453-4.192,1.279-5.544c-0.66-0.757-1.758-1.046-3.008-0.796
				c-0.934,0.187-1.84,0.65-2.623,1.339l-7.084,6.255c-1.871,1.65-2.457,4.188-1.277,5.544c0.658,0.757,1.75,1.046,3.006,0.794
				C185.035,106.141,185.939,105.677,186.721,104.985z"/>
			<path fill="#FFFFFF" d="M102.224,137.82H71.438c-0.222,0-0.405-0.18-0.405-0.403v-33.293c0-0.223,0.183-0.402,0.405-0.402h57.188
				c0.224,0,0.404,0.18,0.404,0.402v14.917c1.448-0.624,2.762-1.245,3.865-1.852v-12.728c0-2.448-1.984-4.431-4.427-4.431H71.594
				c-2.447,0-4.429,1.982-4.429,4.428v32.618c0,2.448,1.982,4.431,4.429,4.431h21.801v6.604h-9.029c-1.533,0-2.775,1.244-2.775,2.78
				c0,1.53,1.243,2.772,2.775,2.772h20.952L102.224,137.82z"/>
			<polygon fill="#FFFFFF" points="117.599,152.775 109.13,154.469 104.609,131.558 113.079,129.864 			"/>
			<path fill="#FFFFFF" d="M185.207,158.898l-11.98-60.719c-0.344-1.72-1.93-2.862-3.529-2.545
				c-1.223,0.245-2.102,1.267-2.313,2.507c-4.521,3.651-15.063,11.98-23.043,17.022c-14.947,9.46-28.739,13.912-28.739,13.912
				l4.625,23.435c0,0,4.942-0.4,12.493-0.146l4.419,21.819c0.346,1.715,2.029,2.829,3.735,2.479l5.04-1.036
				c1.705-0.356,2.808-2.041,2.465-3.761l-3.78-18.616c2.4,0.278,4.889,0.623,7.46,1.063c9.291,1.592,22.197,5.23,27.77,6.858
				c0.656,1.065,1.855,1.672,3.074,1.43C184.512,162.288,185.547,160.626,185.207,158.898z M142.1,132.276l-6.81,3.598l6.81,3.188
				v5.724l-14.039-7.061v-3.261l14.039-7.992V132.276L142.1,132.276z M150.925,146.734h-5.599l7.229-22.104h5.598L150.925,146.734z
				 M172.236,137.726l-14.04,7.061v-5.724l6.815-3.19l-6.815-3.599v-5.806l14.04,7.992V137.726z"/>
		</g>
	</g>
</g>
</svg>
