<?xml version="1.0" encoding="utf-8"?>
<!DOCTYPE svg PUBLIC "-//W3C//DTD SVG 1.1//EN" "http://www.w3.org/Graphics/SVG/1.1/DTD/svg11.dtd">
<svg version="1.1" xmlns="http://www.w3.org/2000/svg" xmlns:xlink="http://www.w3.org/1999/xlink" x="0px" y="0px" width="256px"
	 height="256px" viewBox="0 0 256 256" enable-background="new 0 0 256 256" xml:space="preserve">

	<g class="hexa-inner">
    <path fill="#FFFFFF" d="M128,0L17.823,63.999v128L128,256l110.177-64.001v-128L128,0z M231.33,187.926L128,247.856L24.67,187.926V68.075L128,8.14l103.33,59.936V187.926z"/>
	</g>
  <g class="hexa-outer">
    <path fill="#FFFFFF" d="M29.567,70.896v114.208L128,242.197l98.431-57.094V70.896L128,13.8L29.567,70.896z"/>
  </g>
	<g class="inner">
	<g id="Big_data">
		<g>
			<circle fill="#FFFFFF" cx="85.843" cy="112.317" r="7.304"/>
			<circle fill="#FFFFFF" cx="112.086" cy="112.293" r="6.017"/>
			<circle fill="#FFFFFF" cx="77.685" cy="92.613" r="4.312"/>
			<circle fill="#FFFFFF" cx="107.09" cy="89.571" r="5.98"/>
			<circle fill="#FFFFFF" cx="91.398" cy="86.32" r="2.49"/>
			<circle fill="none" stroke="#FFFFFF" stroke-width="0.7291" stroke-miterlimit="10" cx="124.645" cy="140.078" r="1.977"/>
			<circle fill="none" stroke="#FFFFFF" stroke-width="0.7291" stroke-miterlimit="10" cx="75.511" cy="128.682" r="1.978"/>
			<circle fill="#FFFFFF" cx="59.303" cy="138.531" r="3.991"/>
			<circle fill="#FFFFFF" cx="60.617" cy="115.577" r="5.168"/>
			<circle fill="#FFFFFF" cx="79.856" cy="147.001" r="8.333"/>
			<circle fill="#FFFFFF" cx="78.386" cy="163.373" r="1.219"/>
			<circle fill="#FFFFFF" cx="134.992" cy="128.175" r="7.701"/>
			<circle display="none" fill="#FFFFFF" cx="131.436" cy="103.871" r="3.941"/>
			<circle fill="none" stroke="#FFFFFF" stroke-width="0.7291" stroke-miterlimit="10" cx="124.074" cy="93.489" r="1.977"/>
			<circle fill="none" stroke="#FFFFFF" stroke-width="0.7291" stroke-miterlimit="10" cx="109.867" cy="182.625" r="1.978"/>
			<circle fill="#FFFFFF" cx="97.304" cy="174.015" r="6.994"/>
			<circle fill="#FFFFFF" cx="65.102" cy="100.456" r="1.868"/>
			<circle fill="none" stroke="#FFFFFF" stroke-width="0.7291" stroke-miterlimit="10" cx="67.243" cy="155.604" r="1.978"/>
			<circle display="none" fill="#FFFFFF" cx="138.472" cy="113.311" r="1.868"/>
			<circle fill="#FFFFFF" cx="135.17" cy="149.381" r="1.868"/>
			<circle fill="#FFFFFF" cx="107.098" cy="159.115" r="1.869"/>
			<circle fill="#FFFFFF" cx="123.48" cy="155.36" r="6.199"/>
			<circle fill="#FFFFFF" cx="134.542" cy="193.415" r="4.015"/>
			<circle fill="#FFFFFF" cx="103.786" cy="198.084" r="3.775"/>
			<path fill="none" stroke="#FFFFFF" stroke-width="0.7291" stroke-miterlimit="10" d="M121.24,198.928
				c0.331,1.041-0.242,2.153-1.282,2.486c-1.039,0.33-2.153-0.242-2.485-1.283c-0.332-1.041,0.243-2.152,1.28-2.485
				C119.796,197.314,120.907,197.888,121.24,198.928z"/>
			<circle fill="#FFFFFF" cx="117.725" cy="173.313" r="5.48"/>
			
				<line fill="#FFFFFF" stroke="#FFFFFF" stroke-width="0.7304" stroke-miterlimit="10" x1="65.102" y1="100.457" x2="74.909" y2="126.798"/>
			
				<line fill="none" stroke="#FFFFFF" stroke-width="0.7304" stroke-miterlimit="10" x1="60.617" y1="115.576" x2="73.803" y2="127.691"/>
			
				<line fill="none" stroke="#FFFFFF" stroke-width="0.7304" stroke-miterlimit="10" x1="59.303" y1="138.53" x2="79.856" y2="147.001"/>
			
				<line fill="none" stroke="#FFFFFF" stroke-width="0.7304" stroke-miterlimit="10" x1="68.944" y1="154.434" x2="79.856" y2="147.001"/>
			
				<line fill="none" stroke="#FFFFFF" stroke-width="0.7304" stroke-miterlimit="10" x1="78.385" y1="163.374" x2="79.856" y2="147.001"/>
			
				<line fill="none" stroke="#FFFFFF" stroke-width="0.7304" stroke-miterlimit="10" x1="105.069" y1="147.726" x2="106.956" y2="159.186"/>
			
				<line fill="none" stroke="#FFFFFF" stroke-width="0.7304" stroke-miterlimit="10" x1="107.099" y1="159.115" x2="97.26" y2="174.099"/>
			
				<line fill="none" stroke="#FFFFFF" stroke-width="0.7304" stroke-miterlimit="10" x1="107.099" y1="159.115" x2="123.479" y2="155.361"/>
			
				<line fill="none" stroke="#FFFFFF" stroke-width="0.7304" stroke-miterlimit="10" x1="123.479" y1="155.361" x2="135.17" y2="149.381"/>
			
				<line fill="none" stroke="#FFFFFF" stroke-width="0.7304" stroke-miterlimit="10" x1="135.17" y1="149.381" x2="126.459" y2="140.862"/>
			
				<line fill="none" stroke="#FFFFFF" stroke-width="0.7304" stroke-miterlimit="10" x1="122.678" y1="140.152" x2="113.847" y2="139.032"/>
			
				<line display="none" fill="none" stroke="#FFFFFF" stroke-width="0.7304" stroke-miterlimit="10" x1="138.472" y1="113.312" x2="112.086" y2="112.293"/>
			
				<line fill="none" stroke="#FFFFFF" stroke-width="0.7304" stroke-miterlimit="10" x1="113.924" y1="110.964" x2="123.181" y2="95.59"/>
			
				<line fill="none" stroke="#FFFFFF" stroke-width="0.7304" stroke-miterlimit="10" x1="122.261" y1="92.706" x2="107.089" y2="89.571"/>
			
				<line fill="none" stroke="#FFFFFF" stroke-width="0.7304" stroke-miterlimit="10" x1="107.089" y1="89.571" x2="96.577" y2="95.512"/>
			
				<line fill="none" stroke="#FFFFFF" stroke-width="0.7304" stroke-miterlimit="10" x1="65.102" y1="100.457" x2="77.685" y2="92.613"/>
			
				<line fill="none" stroke="#FFFFFF" stroke-width="0.7304" stroke-miterlimit="10" x1="77.685" y1="92.613" x2="85.842" y2="112.317"/>
			
				<line fill="none" stroke="#FFFFFF" stroke-width="0.7304" stroke-miterlimit="10" x1="85.724" y1="112.315" x2="98.037" y2="129.373"/>
			
				<line fill="none" stroke="#FFFFFF" stroke-width="0.7304" stroke-miterlimit="10" x1="107.574" y1="126.766" x2="112.18" y2="112.168"/>
			
				<line fill="none" stroke="#FFFFFF" stroke-width="0.7304" stroke-miterlimit="10" x1="93.22" y1="134.984" x2="77.051" y2="129.678"/>
			
				<line fill="none" stroke="#FFFFFF" stroke-width="0.7304" stroke-miterlimit="10" x1="76.112" y1="130.565" x2="79.566" y2="147.875"/>
			
				<line fill="none" stroke="#FFFFFF" stroke-width="0.7304" stroke-miterlimit="10" x1="97.699" y1="173.432" x2="78.385" y2="163.374"/>
			
				<line fill="none" stroke="#FFFFFF" stroke-width="0.7304" stroke-miterlimit="10" x1="117.726" y1="173.313" x2="119.379" y2="197.553"/>
			
				<line fill="none" stroke="#FFFFFF" stroke-width="0.7304" stroke-miterlimit="10" x1="117.726" y1="173.313" x2="111.445" y2="181.072"/>
			
				<line fill="none" stroke="#FFFFFF" stroke-width="0.7304" stroke-miterlimit="10" x1="118.224" y1="197.815" x2="110.468" y2="184.509"/>
			
				<line fill="none" stroke="#FFFFFF" stroke-width="0.7304" stroke-miterlimit="10" x1="121.24" y1="198.928" x2="134.541" y2="193.416"/>
			
				<line fill="none" stroke="#FFFFFF" stroke-width="0.7304" stroke-miterlimit="10" x1="117.289" y1="199.558" x2="103.787" y2="198.084"/>
			
				<line fill="none" stroke="#FFFFFF" stroke-width="0.7304" stroke-miterlimit="10" x1="103.787" y1="198.084" x2="97.172" y2="173.601"/>
			<circle fill="none" stroke="#FFFFFF" stroke-width="0.7291" stroke-miterlimit="10" cx="94.624" cy="96.507" r="1.977"/>
			
				<line fill="none" stroke="#FFFFFF" stroke-width="0.7" stroke-miterlimit="10" x1="94.037" y1="94.743" x2="91.055" y2="85.407"/>
			
				<line fill="none" stroke="#FFFFFF" stroke-width="0.7304" stroke-miterlimit="10" x1="93.757" y1="98.282" x2="85.842" y2="112.317"/>
			
				<line display="none" fill="none" stroke="#FFFFFF" stroke-width="0.7304" stroke-miterlimit="10" x1="138.472" y1="113.312" x2="131.436" y2="103.871"/>
			
				<line display="none" fill="none" stroke="#FFFFFF" stroke-width="0.7304" stroke-miterlimit="10" x1="111.374" y1="111.832" x2="131.436" y2="103.871"/>
			<circle fill="#FFFFFF" cx="131.794" cy="170.303" r="2.93"/>
			
				<line fill="none" stroke="#FFFFFF" stroke-width="0.7304" stroke-miterlimit="10" x1="117.726" y1="173.313" x2="131.794" y2="170.304"/>
			
				<line fill="none" stroke="#FFFFFF" stroke-width="0.7304" stroke-miterlimit="10" x1="134.541" y1="193.416" x2="131.794" y2="170.304"/>
			
				<line fill="none" stroke="#FFFFFF" stroke-width="0.7304" stroke-miterlimit="10" x1="123.479" y1="155.361" x2="131.408" y2="162.663"/>
			
				<line fill="none" stroke="#FFFFFF" stroke-width="0.7304" stroke-miterlimit="10" x1="79.388" y1="147.319" x2="91.003" y2="158.063"/>
			
				<line fill="none" stroke="#FFFFFF" stroke-width="0.7304" stroke-miterlimit="10" x1="97.26" y1="174.099" x2="91.003" y2="158.063"/>
			
				<line fill="none" stroke="#FFFFFF" stroke-width="0.7304" stroke-miterlimit="10" x1="59.303" y1="138.53" x2="60.617" y2="115.576"/>
			<circle fill="#FFFFFF" cx="91" cy="157.979" r="1.974"/>
			<circle fill="#FFFFFF" cx="131.291" cy="162.575" r="1.219"/>
			
				<line fill="none" stroke="#FFFFFF" stroke-width="0.7304" stroke-miterlimit="10" x1="131.408" y1="162.663" x2="117.145" y2="173.498"/>
			
				<line display="none" fill="none" stroke="#FFFFFF" stroke-width="0.7304" stroke-miterlimit="10" x1="138.472" y1="113.312" x2="134.991" y2="128.174"/>
			
				<line fill="none" stroke="#FFFFFF" stroke-width="0.7304" stroke-miterlimit="10" x1="134.991" y1="128.174" x2="125.668" y2="138.389"/>
			
				<line fill="none" stroke="#FFFFFF" stroke-width="0.7304" stroke-miterlimit="10" x1="135.444" y1="149.293" x2="134.434" y2="128.784"/>
			<path fill="#FFFFFF" d="M135.599,205.135l-22.569,7.211c-1.573,0.502-2.38,2.28-1.846,3.954c0.545,1.704,2.25,2.647,3.797,2.154
				l22.569-7.21c1.573-0.504,2.381-2.281,1.847-3.956C138.861,205.614,137.146,204.641,135.599,205.135z"/>
			<path fill="#FFFFFF" d="M135.019,218.008l-14.025,4.479c-1.573,0.504-2.38,2.283-1.845,3.956
				c0.544,1.703,2.251,2.647,3.796,2.153l14.023-4.48c1.573-0.502,2.381-2.28,1.847-3.955
				C138.28,218.487,136.563,217.514,135.019,218.008z"/>
			<g>
				<g>
					<path fill="#FFFFFF" d="M100.531,137.154c-1.099-0.582-2.459-0.163-3.039,0.938c-0.582,1.097-0.161,2.458,0.936,3.038
						c1.099,0.579,2.459,0.159,3.039-0.938C102.049,139.095,101.628,137.732,100.531,137.154z M104.326,132.999
						c0.689,0.363,1.543,0.101,1.907-0.59c0.365-0.687,0.102-1.541-0.588-1.904c-0.689-0.364-1.542-0.102-1.907,0.589
						C103.374,131.781,103.637,132.635,104.326,132.999z M110.166,140.571c-0.877-0.463-1.964-0.129-2.428,0.749
						c-0.465,0.879-0.129,1.965,0.749,2.428c0.877,0.464,1.965,0.131,2.429-0.748C111.379,142.123,111.044,141.035,110.166,140.571z
						 M115.986,133.868c-2.209-6.915-9.607-10.731-16.524-8.522c-6.916,2.21-10.732,9.607-8.523,16.523
						c2.21,6.918,9.608,10.733,16.523,8.523C114.379,148.183,118.195,140.784,115.986,133.868z M101.678,132.031l0.492-0.15
						c-0.013-0.262,0.011-0.528,0.072-0.786l-0.453-0.24c-0.138-0.072-0.191-0.239-0.119-0.377l0.395-0.748
						c0.074-0.139,0.242-0.188,0.38-0.116l0.453,0.24c0.179-0.196,0.385-0.365,0.607-0.503l-0.151-0.492
						c-0.045-0.149,0.039-0.307,0.188-0.354l0.809-0.248c0.148-0.046,0.307,0.038,0.353,0.187l0.152,0.492
						c0.261-0.013,0.527,0.011,0.787,0.072l0.239-0.454c0.073-0.137,0.241-0.191,0.379-0.118l0.748,0.396
						c0.138,0.073,0.188,0.242,0.114,0.381l-0.239,0.451c0.196,0.18,0.367,0.387,0.502,0.609l0.493-0.151
						c0.148-0.045,0.306,0.037,0.353,0.187l0.25,0.809c0.044,0.149-0.038,0.309-0.188,0.354l-0.49,0.15
						c0.012,0.261-0.012,0.527-0.073,0.787l0.454,0.238c0.137,0.073,0.191,0.24,0.118,0.379l-0.395,0.748
						c-0.073,0.139-0.242,0.188-0.38,0.115l-0.453-0.239c-0.179,0.193-0.385,0.366-0.608,0.502l0.151,0.492
						c0.045,0.149-0.039,0.307-0.187,0.354l-0.81,0.249c-0.149,0.045-0.306-0.037-0.353-0.187l-0.152-0.491
						c-0.262,0.012-0.527-0.013-0.786-0.074l-0.239,0.453c-0.073,0.138-0.241,0.192-0.378,0.12l-0.749-0.396
						c-0.138-0.073-0.188-0.242-0.114-0.38l0.239-0.453c-0.196-0.18-0.366-0.386-0.502-0.608l-0.493,0.151
						c-0.149,0.046-0.306-0.038-0.353-0.188l-0.25-0.809C101.445,132.237,101.529,132.079,101.678,132.031z M104.765,141.172
						l-0.63,1.193c-0.116,0.219-0.386,0.298-0.605,0.182l-0.723-0.382c-0.285,0.313-0.615,0.584-0.969,0.802l0.241,0.783
						c0.073,0.238-0.059,0.49-0.298,0.564l-1.289,0.397c-0.238,0.072-0.491-0.062-0.563-0.299l-0.243-0.783
						c-0.417,0.021-0.841-0.019-1.252-0.116l-0.382,0.723c-0.116,0.219-0.383,0.306-0.602,0.189l-1.193-0.631
						c-0.221-0.115-0.299-0.386-0.184-0.604l0.38-0.723c-0.311-0.285-0.582-0.613-0.8-0.969l-0.785,0.24
						c-0.237,0.073-0.489-0.061-0.562-0.297l-0.397-1.29c-0.074-0.237,0.06-0.489,0.298-0.563l0.783-0.242
						c-0.02-0.415,0.02-0.841,0.115-1.252l-0.722-0.382c-0.219-0.116-0.306-0.385-0.189-0.603l0.63-1.193
						c0.116-0.221,0.385-0.299,0.604-0.183l0.723,0.381c0.285-0.312,0.614-0.583,0.969-0.801l-0.24-0.785
						c-0.073-0.237,0.06-0.489,0.298-0.562l1.288-0.397c0.238-0.073,0.49,0.06,0.563,0.297l0.243,0.784
						c0.415-0.021,0.841,0.02,1.251,0.116l0.382-0.722c0.116-0.222,0.384-0.309,0.604-0.19l1.191,0.631
						c0.221,0.116,0.3,0.385,0.184,0.606l-0.381,0.721c0.312,0.284,0.583,0.614,0.8,0.97l0.786-0.24
						c0.237-0.074,0.489,0.059,0.562,0.298l0.397,1.289c0.074,0.235-0.06,0.488-0.296,0.562l-0.784,0.243
						c0.02,0.414-0.02,0.84-0.116,1.251l0.722,0.383C104.795,140.685,104.881,140.951,104.765,141.172z M113.541,141.801
						l-0.626,0.195c0.015,0.331-0.017,0.67-0.094,1l0.578,0.305c0.175,0.094,0.244,0.306,0.151,0.482l-0.503,0.954
						c-0.093,0.174-0.308,0.238-0.484,0.146l-0.577-0.307c-0.229,0.249-0.492,0.466-0.775,0.641l0.193,0.627
						c0.058,0.189-0.047,0.391-0.237,0.45l-1.031,0.316c-0.19,0.059-0.392-0.048-0.45-0.237l-0.194-0.626
						c-0.333,0.016-0.672-0.016-1.001-0.094l-0.305,0.577c-0.093,0.177-0.307,0.246-0.482,0.152l-0.953-0.504
						c-0.176-0.093-0.239-0.309-0.146-0.483l0.306-0.578c-0.249-0.228-0.467-0.489-0.641-0.772l-0.627,0.191
						c-0.189,0.058-0.391-0.049-0.448-0.238l-0.318-1.032c-0.058-0.188,0.049-0.39,0.238-0.448l0.626-0.192
						c-0.016-0.332,0.016-0.675,0.093-1.002l-0.577-0.306c-0.177-0.093-0.246-0.307-0.153-0.481l0.504-0.952
						c0.093-0.177,0.308-0.24,0.484-0.147l0.577,0.306c0.229-0.251,0.492-0.467,0.775-0.64l-0.193-0.629
						c-0.058-0.189,0.048-0.391,0.238-0.448l1.029-0.318c0.19-0.059,0.392,0.049,0.451,0.238l0.194,0.625
						c0.332-0.016,0.671,0.018,1.001,0.095l0.305-0.578c0.093-0.176,0.307-0.245,0.483-0.152l0.952,0.505
						c0.175,0.092,0.238,0.309,0.146,0.483l-0.305,0.577c0.25,0.227,0.467,0.491,0.64,0.774l0.627-0.19
						c0.19-0.061,0.391,0.047,0.45,0.236l0.318,1.03C113.837,141.541,113.73,141.743,113.541,141.801z"/>
				</g>
			</g>
		</g>
		<rect x="139.266" y="109.436" fill="#FFFFFF" width="10.739" height="10.74"/>
		<polygon fill="#FFFFFF" points="160.744,98.949 171.23,98.949 171.23,88.21 160.491,88.21 160.491,98.696 150.004,98.696 
			150.004,109.436 160.744,109.436 		"/>
		<rect x="149.751" y="77.469" fill="#FFFFFF" width="10.74" height="10.741"/>
		<rect x="128.523" y="98.696" fill="#FFFFFF" width="10.742" height="10.741"/>
		<rect x="160.618" y="109.564" fill="#FFFFFF" width="10.74" height="10.74"/>
		<rect x="182.098" y="117.846" fill="#FFFFFF" width="10.74" height="10.741"/>
		<rect x="171.358" y="98.696" fill="#FFFFFF" width="10.739" height="10.741"/>
		<rect x="184.935" y="85.119" fill="#FFFFFF" width="10.74" height="10.741"/>
		<rect x="174.396" y="65.311" fill="#FFFFFF" width="10.742" height="10.74"/>
	</g>
</g>
</svg>
