<?xml version="1.0" encoding="utf-8"?>
<!-- Generator: Adobe Illustrator 16.0.0, SVG Export Plug-In . SVG Version: 6.00 Build 0)  -->
<!DOCTYPE svg PUBLIC "-//W3C//DTD SVG 1.1//EN" "http://www.w3.org/Graphics/SVG/1.1/DTD/svg11.dtd">
<svg version="1.1" id="Layer_1" xmlns="http://www.w3.org/2000/svg" xmlns:xlink="http://www.w3.org/1999/xlink" x="0px" y="0px"
	 width="256px" height="256px" viewBox="0 0 256 256" enable-background="new 0 0 256 256" xml:space="preserve">
<g>
	<g opacity="0.4">
		<g>
			<path fill="#FFFFFF" d="M29.567,70.898v114.21l98.435,57.088l98.433-57.088V70.898L128.001,13.8L29.567,70.898z M128.001,0
				L17.823,63.998v128.003L128.001,256l110.175-63.999V63.998L128.001,0z M231.331,187.927l-103.33,59.931L24.671,187.927V68.074
				L128.001,8.141l103.33,59.934V187.927z"/>
		</g>
	</g>
	<g id="Dev_1_">
		<g>
			<path fill="#FFFFFF" d="M191.555,85.863H99.939c-3.94,0-7.136,3.183-7.136,7.108v52.39c0,3.926,3.195,7.111,7.136,7.111h35.117
				v10.61h-14.544c-2.47,0-4.475,1.999-4.475,4.457c0,2.465,2.005,4.461,4.475,4.461h50.443c2.465,0,4.47-1.996,4.47-4.461
				c0-2.458-2.005-4.457-4.47-4.457h-14.518v-10.61h35.12c3.938,0,7.135-3.181,7.135-7.111v-52.39
				C198.689,89.046,195.496,85.863,191.555,85.863z M192.459,145.905c0,0.358-0.287,0.647-0.648,0.647H99.684
				c-0.355,0-0.649-0.289-0.649-0.647V92.434c0-0.357,0.292-0.648,0.649-0.648h92.124c0.36,0,0.65,0.291,0.65,0.648L192.459,145.905
				L192.459,145.905z"/>
			<g>
				<path fill="#FFFFFF" d="M134.275,128.932l-17.734-8.835v-2.88l17.734-9.998v4.84l-12.216,6.384l12.216,5.673V128.932z"/>
				<path fill="#FFFFFF" d="M155.467,103.342l-9.736,29.464h-4.943l9.733-29.464H155.467L155.467,103.342z"/>
				<path fill="#FFFFFF" d="M157.217,124.115l12.215-5.673l-12.215-6.391v-4.835l17.738,9.998v2.88l-17.738,8.837V124.115
					L157.217,124.115z"/>
			</g>
			<g>
				<g>
					<path fill="#FFFFFF" d="M85.476,104.633l-24.863,3.107c-2.068,0.255-3.542,2.232-3.272,4.387l6.301,50.138
						c0.274,2.157,2.19,3.708,4.261,3.45l24.861-3.103c2.068-0.26,3.543-2.229,3.274-4.387l-6.304-50.143
						C89.463,105.923,87.545,104.375,85.476,104.633z M69.424,109.505l7.953-0.993c0.25-0.036,0.483,0.153,0.513,0.417
						c0.034,0.26-0.143,0.495-0.396,0.532l-7.951,0.994c-0.252,0.027-0.48-0.157-0.517-0.417
						C68.997,109.771,69.172,109.536,69.424,109.505z M80.083,162.202c-1.038,0.128-1.993-0.641-2.126-1.726
						c-0.138-1.084,0.594-2.064,1.635-2.193c1.037-0.136,1.991,0.636,2.13,1.723C81.858,161.093,81.125,162.07,80.083,162.202z
						 M92.995,155.217l-27.151,3.392l-5.596-44.519l27.153-3.39L92.995,155.217z"/>
				</g>
				<g>
					<path fill="#FFFFFF" d="M72.164,132.853l-6.84-2.405l-0.13-1.045l5.983-4.436l0.217,1.759l-4.141,2.873l4.693,1.504
						L72.164,132.853z"/>
					<path fill="#FFFFFF" d="M78.691,122.596l-2.192,11.146l-1.795,0.226l2.191-11.144L78.691,122.596L78.691,122.596z"/>
					<path fill="#FFFFFF" d="M80.273,130.062l4.176-2.61l-4.725-1.769l-0.221-1.75l6.898,2.819l0.132,1.051l-6.038,4.011
						L80.273,130.062L80.273,130.062z"/>
				</g>
			</g>
		</g>
	</g>
</g>
</svg>
