<?xml version="1.0" encoding="utf-8"?>
<!DOCTYPE svg PUBLIC "-//W3C//DTD SVG 1.1//EN" "http://www.w3.org/Graphics/SVG/1.1/DTD/svg11.dtd">
<svg version="1.1" id="Layer_1" xmlns="http://www.w3.org/2000/svg" xmlns:xlink="http://www.w3.org/1999/xlink" x="0px" y="0px"
	 width="256px" height="256px" viewBox="0 0 256 256" enable-background="new 0 0 256 256" xml:space="preserve">

	<g class="hexa-inner">
    <path fill="#FFFFFF" d="M128,0L17.823,63.999v128L128,256l110.177-64.001v-128L128,0z M231.33,187.926L128,247.856L24.67,187.926V68.075L128,8.14l103.33,59.936V187.926z"/>
	</g>
  <g class="hexa-outer">
    <path fill="#FFFFFF" d="M29.567,70.896v114.208L128,242.197l98.431-57.094V70.896L128,13.8L29.567,70.896z"/>
  </g>
	<g class="inner">
	<g>
		<path fill="#FFFFFF" d="M172.201,131.674l0.001,34.615c0,0.42-0.347,0.771-0.772,0.771H61.952c-0.427,0-0.774-0.351-0.774-0.771
			v-63.738c0-0.423,0.347-0.772,0.774-0.772h76.196V94.72H62.249c-4.682,0-8.479,3.796-8.479,8.479v62.438
			c0,4.688,3.797,8.485,8.479,8.485h41.735v12.644H86.701c-2.935,0-5.314,2.385-5.314,5.316c0,2.936,2.379,5.313,5.314,5.313h59.943
			c2.936,0,5.315-2.379,5.315-5.313c0-2.932-2.385-5.316-5.315-5.316h-17.252v-12.644h41.738c4.682,0,8.479-3.797,8.479-8.485
			v-33.964L172.201,131.674L172.201,131.674z"/>
		<rect x="160.027" y="105.592" fill="#FFFFFF" width="10.74" height="10.742"/>
		<polygon fill="#FFFFFF" points="181.508,95.105 191.994,95.105 191.994,84.366 181.254,84.366 181.254,94.853 170.768,94.853 
			170.768,105.592 181.508,105.592 		"/>
		<rect x="170.516" y="73.626" fill="#FFFFFF" width="10.739" height="10.74"/>
		<rect x="149.288" y="94.853" fill="#FFFFFF" width="10.739" height="10.74"/>
		<rect x="181.382" y="105.72" fill="#FFFFFF" width="10.739" height="10.74"/>
		<rect x="202.859" y="114.002" fill="#FFFFFF" width="10.742" height="10.74"/>
		<rect x="192.121" y="94.853" fill="#FFFFFF" width="10.74" height="10.74"/>
		<rect x="205.697" y="81.275" fill="#FFFFFF" width="10.74" height="10.74"/>
		<rect x="195.161" y="61.467" fill="#FFFFFF" width="10.739" height="10.74"/>
		<g>
			<g>
				<g>
					<path fill="#FFFFFF" d="M146.116,145.268l-4.286-1.787c0.335-2.322,0.34-4.734,0.011-7.104l4.265-1.766
						c1.299-0.537,1.924-1.993,1.388-3.293l-2.914-7.04c-0.539-1.305-2.017-1.892-3.312-1.355L137,124.69
						c-1.439-1.907-3.146-3.608-5.025-5.019l1.77-4.282c0.537-1.295-0.081-2.788-1.377-3.324l-7.044-2.919
						c-1.293-0.536-2.78,0.078-3.318,1.375l-1.787,4.28c-2.324-0.33-4.735-0.339-7.101-0.006l-1.766-4.264
						c-0.538-1.297-1.994-1.924-3.293-1.386l-7.045,2.917c-1.293,0.536-1.883,2.009-1.344,3.307l1.765,4.265
						c-1.907,1.44-3.607,3.152-5.018,5.03l-4.28-1.769c-1.299-0.537-2.788,0.08-3.326,1.377l-2.919,7.044
						c-0.538,1.295,0.078,2.783,1.373,3.318l4.28,1.784c-0.332,2.325-0.335,4.737-0.008,7.104l-4.265,1.765
						c-1.294,0.536-1.923,1.995-1.386,3.294l2.917,7.04c0.537,1.299,2.01,1.883,3.31,1.349l4.266-1.768
						c1.44,1.908,3.145,3.607,5.025,5.021l-1.766,4.282c-0.537,1.3,0.08,2.787,1.376,3.326l7.042,2.918
						c1.298,0.537,2.783-0.077,3.321-1.373l1.786-4.282c2.324,0.332,4.736,0.334,7.103,0.008l1.765,4.27
						c0.536,1.293,1.995,1.92,3.292,1.381l7.043-2.915c1.297-0.536,1.886-2.013,1.349-3.312l-1.767-4.264
						c1.904-1.439,3.605-3.146,5.018-5.025l4.281,1.767c1.296,0.537,2.786-0.079,3.322-1.377l2.92-7.04
						C148.027,147.287,147.412,145.803,146.116,145.268z M116.689,159.85c-10.991,0-19.9-8.91-19.9-19.899
						c0-10.992,8.91-19.901,19.9-19.901c10.99,0,19.901,8.909,19.901,19.901C136.59,150.939,127.68,159.85,116.689,159.85z"/>
				</g>
			</g>
			<path fill="#FFFFFF" d="M126.458,128.137c0.313,0.351,0.606,0.679,0.924,1.034c-0.754,1.138-1.532,2.343-2.948,2.931
				c-0.111,0.045-0.206,0.143-0.293,0.229c-2.449,2.41-4.893,4.826-7.346,7.232c-0.229,0.225-0.264,0.39-0.011,0.606
				c0.197,0.172,0.382,0.356,0.552,0.554c0.396,0.459,0.257,1.02-0.285,1.285c-0.149,0.073-0.278,0.211-0.381,0.344
				c-0.212,0.274-0.363,0.604-0.606,0.846c-2.476,2.463-4.964,4.914-7.451,7.367c-0.381,0.375-0.837,0.641-1.37,0.709
				c-0.591,0.076-1.099-0.184-1.527-0.551c-0.428-0.371-0.848-0.763-1.207-1.195c-0.868-1.047-0.768-1.902,0.187-2.865
				c1.892-1.908,3.821-3.779,5.735-5.666c0.532-0.525,1.061-1.055,1.598-1.576c0.187-0.18,0.374-0.376,0.598-0.5
				c0.376-0.206,0.725-0.395,0.948-0.807c0.172-0.315,0.697-0.324,1.009-0.075c0.256,0.205,0.489,0.438,0.717,0.676
				c0.191,0.198,0.341,0.199,0.542,0.002c2.466-2.442,4.947-4.87,7.398-7.329c0.351-0.352,0.537-0.857,0.843-1.259
				c0.241-0.319,0.522-0.62,0.834-0.873C125.396,128.863,125.92,128.521,126.458,128.137z M107.68,148.748
				c0.058,0.451,0.259,0.725,0.657,0.844c0.441,0.135,0.744-0.102,1.026-0.382c1.914-1.888,3.827-3.776,5.738-5.669
				c0.112-0.109,0.216-0.232,0.299-0.367c0.17-0.273,0.163-0.556-0.014-0.824c-0.34-0.517-0.897-0.562-1.399-0.07
				c-1.979,1.937-3.951,3.879-5.914,5.83C107.9,148.279,107.81,148.533,107.68,148.748z M105.676,146.783
				c0.056,0.664,0.693,1.072,1.254,0.781c0.197-0.103,0.371-0.26,0.53-0.418c1.513-1.483,3.021-2.973,4.527-4.463
				c0.458-0.453,0.92-0.906,1.35-1.388c0.256-0.284,0.232-0.68,0.02-0.968c-0.349-0.471-0.9-0.49-1.386-0.014
				c-1.974,1.938-3.941,3.881-5.9,5.83C105.898,146.318,105.805,146.568,105.676,146.783z"/>
			<g>
				<path fill="#FFFFFF" d="M111.52,137.689c0.458-0.094,0.745,0.016,1.065,0.338c0.068,0.068,0.136,0.137,0.204,0.203
					c0.148-0.103,0.26-0.209,0.342-0.358c0.175-0.323,0.527-0.517,0.94-0.517c0.299,0,0.601,0.104,0.828,0.287
					c0.25,0.199,0.477,0.422,0.675,0.627c0.701-0.694,1.402-1.387,2.104-2.08c-0.559-0.557-1.117-1.115-1.676-1.672
					c-0.337-0.336-0.483-0.647-0.417-1.154c0.432-3.26-1.801-5.876-5.082-5.983c-0.399-0.013-0.803,0.091-1.343,0.157
					c0.25,0.272,0.373,0.417,0.506,0.551c0.685,0.688,1.361,1.38,2.063,2.049c0.266,0.252,0.333,0.504,0.232,0.846
					c-0.198,0.678-0.342,1.369-0.568,2.035c-0.07,0.205-0.304,0.426-0.513,0.496c-0.648,0.221-1.33,0.344-1.98,0.561
					c-0.396,0.132-0.649,0.045-0.928-0.246c-0.791-0.822-1.61-1.62-2.544-2.555c-0.079,0.551-0.186,0.945-0.183,1.34
					C105.274,135.932,108.273,138.359,111.52,137.689z"/>
				<path fill="#FFFFFF" d="M127.597,146.096c-2.769-2.762-5.534-5.525-8.302-8.287c-0.697,0.687-1.394,1.373-2.093,2.06
					c0.18,0.161,0.352,0.338,0.514,0.526c0.29,0.334,0.406,0.734,0.325,1.127c-0.081,0.397-0.363,0.74-0.771,0.939
					c-0.019,0.01-0.067,0.041-0.143,0.126c1.436,1.437,2.871,2.872,4.308,4.308c0.96,0.959,1.904,1.935,2.885,2.871
					c1.427,1.364,3.55,0.826,4.134-1.061C128.777,147.663,128.329,146.826,127.597,146.096z M126.254,149.387
					c-0.52-0.025-0.923-0.472-0.891-0.982c0.033-0.518,0.477-0.918,0.99-0.891c0.502,0.028,0.923,0.494,0.895,0.99
					C127.219,149.016,126.771,149.412,126.254,149.387z"/>
			</g>
		</g>
	</g>
</g>
</svg>
