<?xml version="1.0" encoding="utf-8"?>
<!-- Generator: Adobe Illustrator 16.0.0, SVG Export Plug-In . SVG Version: 6.00 Build 0)  -->
<!DOCTYPE svg PUBLIC "-//W3C//DTD SVG 1.1//EN" "http://www.w3.org/Graphics/SVG/1.1/DTD/svg11.dtd">
<svg version="1.1" id="Layer_1" xmlns="http://www.w3.org/2000/svg" xmlns:xlink="http://www.w3.org/1999/xlink" x="0px" y="0px"
	 width="256px" height="256px" viewBox="0 0 256 256" enable-background="new 0 0 256 256" xml:space="preserve">
<g>
	<g opacity="0.4">
		<g>
			<path fill="#FFFFFF" d="M29.566,70.897v114.207l98.435,57.095l98.433-57.095V70.897l-98.433-57.097L29.566,70.897z M128.001,0
				L17.822,64v128.001L128.001,256l110.177-63.999V64L128.001,0z M231.33,187.928L128.001,247.86L24.67,187.928V68.075
				L128.001,8.141L231.33,68.075V187.928z"/>
		</g>
	</g>
	<g id="Lead_Technique_1_">
		<g>
			<path fill="#FFFFFF" d="M156.649,94.223l-6.829,20.893h-3.471l6.828-20.893H156.649L156.649,94.223z"/>
			<path fill="#FFFFFF" d="M157.879,108.95l8.569-4.018l-8.569-4.53v-3.431l12.44,7.087v2.046l-12.44,6.26V108.95L157.879,108.95z"
				/>
			<path fill="#FFFFFF" d="M141.779,96.972l-12.441,7.087v2.043l1.233,0.619l0.803-0.51c0-0.017-0.004-0.031-0.004-0.048
				c0-0.642,0.512-1.16,1.147-1.16s1.147,0.519,1.147,1.16c0,0.638-0.512,1.157-1.147,1.157c-0.186,0-0.357-0.052-0.512-0.129
				l-0.224,0.139l10.001,5.034v-3.414l-8.57-4.018l8.57-4.53v-3.431H141.779z"/>
			<g>
				<path fill="#FFFFFF" d="M118.684,112.647c-0.173-0.038-0.36-0.012-0.524,0.088l-0.179,0.113
					c-0.322,0.207-0.419,0.636-0.219,0.964c0.202,0.325,0.632,0.428,0.954,0.219l0.179-0.109c0.325-0.204,0.422-0.636,0.218-0.959
					C119.014,112.796,118.854,112.689,118.684,112.647L118.684,112.647z M118.836,112.051c0.675,0.09,1.312,0.474,1.703,1.1
					l0.504,0.813c0.693,1.121,0.355,2.594-0.756,3.295l-1.487,0.937l-0.029-0.119c-0.188-0.5-0.427-0.995-0.718-1.468
					c-0.585-0.943-1.339-1.725-2.189-2.327l-0.834-0.478l2.24-1.41c0.276-0.177,0.578-0.286,0.881-0.334
					C118.378,112.021,118.608,112.02,118.836,112.051L118.836,112.051z"/>
				<polygon fill="#FFFFFF" points="98.917,84.04 202.771,84.04 202.771,144.77 98.917,144.77 98.917,139.24 102.54,136.962 
					102.54,140.411 199.146,140.411 199.146,87.6 102.54,87.6 102.54,115.445 98.917,117.724 				"/>
				<path fill="#FFFFFF" d="M111.813,113.811c2.132,0.075,4.19,1.182,5.405,3.139c1.943,3.136,0.998,7.265-2.112,9.225
					L92.63,140.322l-0.284,0.14v28.654c-0.005,3.291-29.133,2.858-28.997,0l-0.099-26.188l-3.534,13.657
					c-0.925,3.563-4.541,5.701-8.081,4.771c-3.537-0.93-5.66-4.572-4.736-8.134l5.559-21.461c0.459-1.783,1.598-3.207,3.057-4.071
					l0.574-0.201l1.147-0.693c1.643-0.727,3.689-1.185,6.113-1.485c4.835-0.861,9.668-1.397,14.501-1.451
					c2.413-0.029,4.83,0.065,7.248,0.299l6.499,1.031l16.466-10.365C109.232,114.089,110.534,113.765,111.813,113.811
					L111.813,113.811z"/>
				<path fill="#FFFFFF" d="M60.946,107.048c0-8.062,6.489-14.601,14.493-14.601c8.005,0,14.496,6.539,14.496,14.601
					c0,8.065-6.491,14.604-14.496,14.604C67.433,121.652,60.946,115.115,60.946,107.048L60.946,107.048z"/>
				<path fill="#FFFFFF" d="M132.527,105.585c0.31,0,0.557,0.253,0.557,0.563c0,0.309-0.247,0.563-0.557,0.563l-0.276-0.111
					l-10.938,6.873c-0.103,0.063-0.239,0.031-0.304-0.07c-0.065-0.106-0.03-0.242,0.071-0.309l10.921-6.858l-0.033-0.088
					C131.968,105.838,132.221,105.585,132.527,105.585L132.527,105.585z"/>
			</g>
		</g>
	</g>
</g>
</svg>
