<?xml version="1.0" encoding="utf-8"?>
<!DOCTYPE svg PUBLIC "-//W3C//DTD SVG 1.1//EN" "http://www.w3.org/Graphics/SVG/1.1/DTD/svg11.dtd">
<svg version="1.1" id="Layer_1" xmlns="http://www.w3.org/2000/svg" xmlns:xlink="http://www.w3.org/1999/xlink" x="0px" y="0px"
	 width="256px" height="256px" viewBox="0 0 256 256" enable-background="new 0 0 256 256" xml:space="preserve">

	<g class="hexa-inner">
    <path fill="#FFFFFF" d="M128,0L17.823,63.999v128L128,256l110.177-64.001v-128L128,0z M231.33,187.926L128,247.856L24.67,187.926V68.075L128,8.14l103.33,59.936V187.926z"/>
	</g>
  <g class="hexa-outer">
    <path fill="#FFFFFF" d="M29.567,70.896v114.208L128,242.197l98.431-57.094V70.896L128,13.8L29.567,70.896z"/>
  </g>
	<g class="inner">
	<g id="Mobile">
		<path fill="#FFFFFF" d="M111.855,151.092l-1.807,1.771c-1.122-0.674-2.338-1.189-3.581-1.522l0.021-2.536
			c0.009-0.77-0.611-1.4-1.378-1.408l-4.176-0.043c-0.768-0.008-1.397,0.608-1.406,1.377l-0.033,2.543
			c-1.248,0.309-2.474,0.795-3.609,1.447l-1.77-1.805c-0.539-0.55-1.406-0.57-1.956-0.032l-2.983,2.925
			c-0.547,0.537-0.546,1.405-0.006,1.955l1.77,1.807c-0.674,1.121-1.189,2.34-1.521,3.582l-2.537-0.023
			c-0.77-0.007-1.4,0.609-1.408,1.379l-0.042,4.18c-0.009,0.77,0.608,1.396,1.376,1.404l2.541,0.03
			c0.307,1.25,0.799,2.478,1.449,3.608l-1.806,1.771c-0.548,0.537-0.569,1.407-0.03,1.957l2.922,2.98
			c0.538,0.549,1.407,0.547,1.958,0.008l1.806-1.77c1.123,0.674,2.336,1.188,3.581,1.521l-0.021,2.535
			c-0.008,0.771,0.61,1.4,1.379,1.41l4.176,0.043c0.77,0.006,1.398-0.607,1.406-1.377l0.032-2.543
			c1.249-0.308,2.476-0.799,3.612-1.447l1.77,1.808c0.537,0.55,1.406,0.565,1.955,0.026l2.983-2.92
			c0.549-0.539,0.546-1.407,0.008-1.959l-1.769-1.805c0.672-1.121,1.188-2.339,1.52-3.58l2.538,0.021
			c0.769,0.008,1.399-0.609,1.406-1.379l0.045-4.176c0.007-0.771-0.609-1.398-1.378-1.405l-2.542-0.032
			c-0.305-1.25-0.796-2.477-1.448-3.611l1.805-1.77c0.55-0.539,0.57-1.406,0.032-1.958l-2.921-2.979
			C113.274,150.551,112.405,150.555,111.855,151.092z M107.719,169.74c-2.745,2.691-7.151,2.646-9.842-0.1s-2.647-7.149,0.098-9.843
			c2.746-2.69,7.152-2.646,9.843,0.101S110.465,167.05,107.719,169.74z"/>
		<g>
			<path fill="#FFFFFF" d="M85.872,152.439l-12.055-29.951l39.138-15.753V96.553c-0.936-0.083-1.898,0.04-2.821,0.411
				l-38.329,15.428c-3.193,1.285-4.735,4.999-3.424,8.256l13.451,33.417L85.872,152.439z M86.555,111.413l12.261-4.936
				c0.389-0.157,0.833,0.038,0.993,0.436c0.158,0.395-0.027,0.842-0.416,0.999l-12.262,4.936c-0.386,0.156-0.831-0.037-0.991-0.433
				C85.981,112.017,86.167,111.57,86.555,111.413z"/>
			<path fill="#FFFFFF" d="M148.828,176.34l-19.482-48.401h-4.693l18.111,44.991l-41.861,16.85l-1.799-4.469l-4.041,1.627l3.824,9.5
				c1.311,3.258,4.997,4.869,8.19,3.586l38.329-15.43C148.596,183.311,150.141,179.598,148.828,176.34z M125.051,189.35
				c-1.604,0.646-3.438-0.156-4.097-1.795c-0.659-1.639,0.109-3.479,1.712-4.127c1.602-0.646,3.435,0.151,4.094,1.791
				C127.419,186.855,126.652,188.705,125.051,189.35z"/>
		</g>
		<rect x="139.266" y="109.436" fill="#FFFFFF" width="10.739" height="10.74"/>
		<polygon fill="#FFFFFF" points="160.744,98.949 171.23,98.949 171.23,88.21 160.491,88.21 160.491,98.696 150.004,98.696 
			150.004,109.436 160.744,109.436 		"/>
		<rect x="149.751" y="77.469" fill="#FFFFFF" width="10.74" height="10.741"/>
		<rect x="128.523" y="98.696" fill="#FFFFFF" width="10.742" height="10.741"/>
		<rect x="160.618" y="109.564" fill="#FFFFFF" width="10.739" height="10.74"/>
		<rect x="182.098" y="117.846" fill="#FFFFFF" width="10.74" height="10.741"/>
		<rect x="171.357" y="98.696" fill="#FFFFFF" width="10.74" height="10.741"/>
		<rect x="184.936" y="85.119" fill="#FFFFFF" width="10.739" height="10.741"/>
		<rect x="174.396" y="65.311" fill="#FFFFFF" width="10.742" height="10.74"/>
	</g>
</g>
</svg>
