<?xml version="1.0" encoding="utf-8"?>
<!DOCTYPE svg PUBLIC "-//W3C//DTD SVG 1.1//EN" "http://www.w3.org/Graphics/SVG/1.1/DTD/svg11.dtd">
<svg version="1.1" id="Layer_1" xmlns="http://www.w3.org/2000/svg" xmlns:xlink="http://www.w3.org/1999/xlink" x="0px" y="0px"
	 width="256px" height="256px" viewBox="0 0 256 256" enable-background="new 0 0 256 256" xml:space="preserve">

	<g class="hexa-inner">
    <path fill="#FFFFFF" d="M128,0L17.823,63.999v128L128,256l110.177-64.001v-128L128,0z M231.33,187.926L128,247.856L24.67,187.926V68.075L128,8.14l103.33,59.936V187.926z"/>
	</g>
  <g class="hexa-outer">
    <path fill="#FFFFFF" d="M29.567,70.896v114.208L128,242.197l98.431-57.094V70.896L128,13.8L29.567,70.896z"/>
  </g>
	<g class="inner">
	<g id="Project">
		<g id="Project_1_">
			<path fill="#FFFFFF" d="M185.523,99.752H96.32c-3.835,0-6.945,3.111-6.945,6.945v51.159c0,3.838,3.11,6.949,6.945,6.949h34.196
				v10.36h-14.159c-2.405,0-4.356,1.952-4.356,4.354c0,2.404,1.952,4.352,4.356,4.352h49.111c2.404,0,4.351-1.952,4.351-4.352
				c0-2.401-1.949-4.354-4.351-4.354H151.33v-10.36h34.199c3.838,0,6.947-3.111,6.947-6.949v-51.159
				C192.475,102.863,189.363,99.752,185.523,99.752z M186.407,158.391c0,0.344-0.284,0.633-0.634,0.633H96.078
				c-0.35,0-0.634-0.289-0.634-0.633v-52.222c0-0.347,0.284-0.632,0.634-0.632h89.695c0.349,0,0.631,0.283,0.631,0.632
				L186.407,158.391L186.407,158.391z"/>
			<g>
				<path fill="#FFFFFF" d="M110.661,126.488l-11.384-5.687v-1.855l11.384-6.436v3.113l-7.841,4.115l7.841,3.647V126.488z"/>
				<path fill="#FFFFFF" d="M124.267,110.004l-6.25,18.979h-3.178l6.249-18.979H124.267L124.267,110.004z"/>
				<path fill="#FFFFFF" d="M125.387,123.381l7.837-3.65l-7.837-4.114v-3.116l11.384,6.439v1.857l-11.384,5.684V123.381
					L125.387,123.381z"/>
			</g>
			<g>
				<g>
					<path fill="#FFFFFF" d="M84.192,113.668l-26.052,1.907c-2.167,0.157-3.81,2.111-3.649,4.34l3.798,51.88
						c0.163,2.229,2.072,3.924,4.242,3.766l26.051-1.904c2.167-0.159,3.813-2.109,3.647-4.338L88.43,117.43
						C88.266,115.204,86.355,113.511,84.192,113.668z M67.213,117.847l8.332-0.609c0.265-0.02,0.495,0.185,0.514,0.457
						c0.021,0.271-0.176,0.504-0.439,0.523l-8.335,0.609c-0.263,0.021-0.494-0.183-0.514-0.452
						C66.75,118.104,66.947,117.868,67.213,117.847z M75.407,172.58c-1.087,0.081-2.038-0.762-2.121-1.883
						c-0.083-1.125,0.737-2.088,1.825-2.168c1.086-0.08,2.037,0.758,2.121,1.879C77.314,171.529,76.497,172.507,75.407,172.58z
						 M89.231,166.068l-28.446,2.084l-3.374-46.062l28.447-2.083L89.231,166.068z"/>
				</g>
				<g>
					<path fill="#FFFFFF" d="M63.98,129.839l-3.485-1.432l-0.038-0.548l3.224-2.147l0.069,0.921l-2.228,1.386l2.395,0.907
						L63.98,129.839z"/>
					<path fill="#FFFFFF" d="M67.644,124.678l-1.436,5.74l-0.939,0.068l1.435-5.74L67.644,124.678L67.644,124.678z"/>
					<path fill="#FFFFFF" d="M68.264,128.604l2.239-1.248l-2.407-1.046l-0.067-0.92l3.502,1.657l0.04,0.545l-3.239,1.926
						L68.264,128.604L68.264,128.604z"/>
				</g>
			</g>
		</g>
	</g>
</g>
</svg>
