<?xml version="1.0" encoding="utf-8"?>
<!DOCTYPE svg PUBLIC "-//W3C//DTD SVG 1.1//EN" "http://www.w3.org/Graphics/SVG/1.1/DTD/svg11.dtd">
<svg version="1.1" id="Layer_1" xmlns="http://www.w3.org/2000/svg" xmlns:xlink="http://www.w3.org/1999/xlink" x="0px" y="0px"
	 width="256px" height="256px" viewBox="0 0 256 256" enable-background="new 0 0 256 256" xml:space="preserve">

	<g class="hexa-inner">
    <path fill="#FFFFFF" d="M128,0L17.823,63.999v128L128,256l110.177-64.001v-128L128,0z M231.33,187.926L128,247.856L24.67,187.926V68.075L128,8.14l103.33,59.936V187.926z"/>
	</g>
  <g class="hexa-outer">
    <path fill="#FFFFFF" d="M29.567,70.896v114.208L128,242.197l98.431-57.094V70.896L128,13.8L29.567,70.896z"/>
  </g>
	<g class="inner">
	<g id="Proto">
		<g>
			<g>
				<g id="Layer_5_3_">
					<g>
						<path fill="#FFFFFF" d="M83.967,113.066c0.734-0.236,0.633-0.962,0.479-1.285c-3.465-7.298-11.671-11.232-19.608-9.235
							c-0.362,0.093-1.069,0.342-0.841,1.058l4.314,13.397c0,0,0.323,1.002,1.325,0.678
							C73.22,116.526,83.967,113.066,83.967,113.066z"/>
						<path fill="#FFFFFF" d="M83.146,97.964l0.737-1.44c0.063-0.123,0.165-0.149,0.218-0.172c0.339-0.142,0.709-0.3,1.123-0.526
							c1.496-0.803,0.137-2.283-1.994-3.376c-2.128-1.09-4.141-1.332-3.904,0.351c0.068,0.504,0.146,0.859,0.229,1.218
							c0.01,0.042,0.036,0.113-0.014,0.214l-0.712,1.389c-0.139,0.271-0.349,0.168-0.459,0.125
							c-4.125-1.657-8.706-2.23-13.297-1.503c-0.113,0.019-0.336,0.06-0.407-0.16l-0.209-0.646c-0.05-0.158,0.057-0.255,0.106-0.301
							c0.883-0.793,1.384-1.702,1.807-2.694c0.966-2.263-3.602-2.025-6.899-0.964c-3.3,1.058-7.148,3.527-5.042,4.806
							c0.897,0.544,1.807,0.98,2.939,1.123c0.087,0.011,0.252-0.001,0.33,0.233l0.187,0.588c0.074,0.227-0.115,0.345-0.214,0.394
							c-5.326,2.673-9.389,7.079-11.703,12.283c-2.435,5.468-2.939,11.82-0.962,17.967c4.269,13.252,18.469,20.533,31.72,16.27
							c12.608-4.06,19.813-17.112,16.811-29.785c-0.155-0.647-0.333-1.294-0.541-1.938c-1.776-5.514-5.272-9.994-9.704-13.04
							C83.204,98.318,83.024,98.202,83.146,97.964z M88.97,114.812c2.219,10.159-3.604,20.53-13.708,23.784
							c-10.74,3.461-22.254-2.443-25.715-13.187c-1.602-4.984-1.194-10.132,0.78-14.567c2.28-5.123,6.648-9.294,12.409-11.148
							c10.744-3.459,22.259,2.445,25.716,13.188C88.656,113.521,88.832,114.164,88.97,114.812z"/>
					</g>
				</g>
			</g>
		</g>
		<g>
			<path fill="#FFFFFF" d="M132.506,107.958v-5.602H92.204c1.26,1.736,2.353,3.602,3.205,5.602H132.506L132.506,107.958z"/>
			<path fill="#FFFFFF" d="M132.506,159.785H89.053c-0.338,0-0.614-0.275-0.614-0.616v-18.782c-1.775,1.643-3.737,3.086-5.883,4.243
				v14.029c0,3.719,3.013,6.733,6.733,6.733h33.133v10.041h-13.723c-2.329,0-4.221,1.893-4.221,4.219
				c0,2.33,1.892,4.219,4.221,4.219h23.807V159.785z"/>
		</g>
		<g>
			<path fill="#FFFFFF" d="M138.691,104.297c-1.779,0-2.887,1.606-2.887,4.195c0.024,2.555,1.084,4.145,2.756,4.145
				c1.836,0,2.887-1.551,2.887-4.252C141.451,105.826,140.418,104.297,138.691,104.297z M138.623,111.341
				c-0.795,0-1.291-1.09-1.291-2.843c0-1.769,0.512-2.91,1.301-2.91c1.119,0,1.291,1.779,1.291,2.84
				C139.924,109.517,139.756,111.341,138.623,111.341z"/>
			<path fill="#FFFFFF" d="M142.791,106.403c0.02,0.074,0.072,0.137,0.141,0.166c0.072,0.033,0.152,0.029,0.221-0.008l0.976-0.525
				v6.221c0,0.138,0.11,0.249,0.248,0.249h0.992c0.137,0,0.25-0.11,0.25-0.249v-7.583c0-0.141-0.113-0.252-0.25-0.252h-0.877
				c-0.041,0-0.084,0.011-0.115,0.03l-1.658,0.887c-0.102,0.053-0.151,0.17-0.122,0.282L142.791,106.403z"/>
			<path fill="#FFFFFF" d="M150.18,112.634c1.836,0,2.891-1.549,2.891-4.249c0-2.561-1.03-4.089-2.756-4.089
				c-1.782,0-2.891,1.606-2.891,4.194C147.445,111.047,148.504,112.634,150.18,112.634z M150.252,105.591
				c1.123,0,1.295,1.779,1.295,2.841c0,1.088-0.172,2.913-1.303,2.913c-0.797,0-1.297-1.091-1.297-2.844
				C148.947,106.729,149.459,105.591,150.252,105.591z"/>
			<path fill="#FFFFFF" d="M156.982,104.297c-1.779,0-2.89,1.606-2.89,4.195c0.027,2.555,1.084,4.145,2.759,4.145
				c1.832,0,2.891-1.551,2.891-4.252C159.742,105.826,158.709,104.297,156.982,104.297z M156.914,111.341
				c-0.797,0-1.293-1.09-1.293-2.843c0-1.769,0.51-2.91,1.303-2.91c1.117,0,1.291,1.779,1.291,2.84
				C158.215,109.517,158.047,111.341,156.914,111.341z"/>
			<path fill="#FFFFFF" d="M161.082,106.403c0.021,0.074,0.072,0.137,0.141,0.166c0.072,0.033,0.156,0.029,0.226-0.008l0.971-0.525
				v6.221c0,0.138,0.11,0.249,0.248,0.249h0.992c0.137,0,0.248-0.11,0.248-0.249v-7.583c0-0.141-0.111-0.252-0.248-0.252h-0.873
				c-0.045,0-0.084,0.011-0.119,0.03l-1.658,0.887c-0.1,0.053-0.151,0.17-0.125,0.282L161.082,106.403z"/>
			<path fill="#FFFFFF" d="M168.955,104.297c-1.781,0-2.887,1.606-2.887,4.195c0.022,2.555,1.08,4.145,2.756,4.145
				c1.834,0,2.887-1.551,2.887-4.252C171.711,105.826,170.682,104.297,168.955,104.297z M168.885,111.341
				c-0.797,0-1.289-1.09-1.289-2.843c0-1.769,0.512-2.91,1.299-2.91c1.121,0,1.293,1.779,1.293,2.84
				C170.188,109.517,170.02,111.341,168.885,111.341z"/>
			<path fill="#FFFFFF" d="M173.055,106.403c0.021,0.074,0.07,0.137,0.141,0.166c0.072,0.033,0.152,0.029,0.222-0.008l0.976-0.525
				v6.221c0,0.138,0.11,0.249,0.248,0.249h0.991c0.138,0,0.25-0.11,0.25-0.249v-7.583c0-0.141-0.112-0.252-0.25-0.252h-0.877
				c-0.041,0-0.08,0.011-0.116,0.03l-1.656,0.887c-0.103,0.053-0.152,0.17-0.123,0.282L173.055,106.403z"/>
			<path fill="#FFFFFF" d="M180.799,112.634c1.832,0,2.887-1.549,2.887-4.249c0-2.561-1.031-4.089-2.756-4.089
				c-1.779,0-2.887,1.606-2.887,4.194C178.064,111.047,179.121,112.634,180.799,112.634z M180.869,105.591
				c1.123,0,1.291,1.779,1.291,2.841c0,1.088-0.17,2.913-1.303,2.913c-0.797,0-1.291-1.091-1.291-2.844
				C179.566,106.729,180.076,105.591,180.869,105.591z"/>
			<path fill="#FFFFFF" d="M185.025,106.403c0.02,0.074,0.072,0.137,0.143,0.166c0.068,0.033,0.152,0.029,0.225-0.008l0.967-0.525
				v6.221c0,0.138,0.113,0.249,0.25,0.249h0.992c0.137,0,0.248-0.11,0.248-0.249v-7.583c0-0.141-0.111-0.252-0.248-0.252h-0.875
				c-0.039,0-0.08,0.011-0.117,0.03l-1.657,0.887c-0.101,0.053-0.152,0.17-0.125,0.282L185.025,106.403z"/>
			<path fill="#FFFFFF" d="M192.898,104.297c-1.779,0-2.887,1.606-2.887,4.195c0.024,2.555,1.081,4.145,2.756,4.145
				c1.83,0,2.887-1.551,2.887-4.252C195.658,105.826,194.625,104.297,192.898,104.297z M192.826,111.341
				c-0.793,0-1.287-1.09-1.287-2.843c0-1.769,0.508-2.91,1.297-2.91c1.123,0,1.295,1.779,1.295,2.84
				C194.131,109.517,193.963,111.341,192.826,111.341z"/>
			<path fill="#FFFFFF" d="M138.391,126.511h0.992c0.137,0,0.246-0.11,0.246-0.249v-7.584c0-0.14-0.109-0.25-0.246-0.25h-0.877
				c-0.041,0-0.084,0.011-0.119,0.032l-1.654,0.887c-0.104,0.053-0.155,0.168-0.125,0.28l0.199,0.783
				c0.021,0.075,0.068,0.134,0.142,0.165c0.073,0.031,0.151,0.028,0.217-0.008l0.976-0.525v6.22
				C138.139,126.4,138.25,126.511,138.391,126.511z"/>
			<path fill="#FFFFFF" d="M144.549,126.638c1.836,0,2.891-1.551,2.891-4.252c0-2.557-1.028-4.086-2.756-4.086
				c-1.783,0-2.887,1.608-2.887,4.196C141.814,125.052,142.873,126.638,144.549,126.638z M144.621,119.592
				c1.123,0,1.295,1.779,1.295,2.841c0,1.089-0.168,2.913-1.301,2.913c-0.797,0-1.293-1.091-1.293-2.842
				C143.318,120.733,143.828,119.592,144.621,119.592z"/>
			<path fill="#FFFFFF" d="M149.139,120.564l0.973-0.527v6.222c0,0.138,0.111,0.248,0.248,0.248h0.992c0.142,0,0.25-0.11,0.25-0.248
				v-7.584c0-0.141-0.108-0.252-0.25-0.252h-0.873c-0.041,0-0.08,0.013-0.119,0.032l-1.655,0.889
				c-0.101,0.053-0.151,0.168-0.125,0.279l0.198,0.781c0.019,0.077,0.07,0.137,0.144,0.168
				C148.988,120.604,149.068,120.6,149.139,120.564z"/>
			<path fill="#FFFFFF" d="M156.521,126.638c1.836,0,2.887-1.551,2.887-4.252c0-2.557-1.027-4.086-2.756-4.086
				c-1.775,0-2.887,1.608-2.887,4.196C153.789,125.052,154.846,126.638,156.521,126.638z M156.594,119.592
				c1.119,0,1.287,1.779,1.287,2.841c0,1.089-0.164,2.913-1.299,2.913c-0.797,0-1.291-1.091-1.291-2.842
				C155.291,120.733,155.801,119.592,156.594,119.592z"/>
			<path fill="#FFFFFF" d="M160.75,120.404c0.02,0.077,0.072,0.137,0.141,0.168c0.07,0.031,0.154,0.027,0.223-0.008l0.972-0.525
				v6.22c0,0.138,0.113,0.248,0.25,0.248h0.992c0.137,0,0.248-0.11,0.248-0.248v-7.584c0-0.141-0.111-0.252-0.248-0.252h-0.875
				c-0.043,0-0.084,0.013-0.117,0.032l-1.657,0.889c-0.101,0.053-0.152,0.168-0.125,0.279L160.75,120.404z"/>
			<path fill="#FFFFFF" d="M168.623,118.3c-1.783,0-2.887,1.608-2.887,4.196c0.021,2.556,1.08,4.145,2.752,4.145
				c1.834,0,2.887-1.55,2.887-4.252C171.379,119.829,170.35,118.3,168.623,118.3z M168.551,125.344
				c-0.795,0-1.287-1.092-1.287-2.842c0-1.769,0.51-2.91,1.297-2.91c1.123,0,1.295,1.778,1.295,2.839
				C169.855,123.521,169.688,125.344,168.551,125.344z"/>
			<path fill="#FFFFFF" d="M174.813,126.638c1.836,0,2.892-1.551,2.892-4.252c0-2.557-1.033-4.086-2.761-4.086
				c-1.778,0-2.887,1.608-2.887,4.196C172.078,125.052,173.137,126.638,174.813,126.638z M174.881,119.592
				c1.123,0,1.297,1.779,1.297,2.841c0,1.089-0.166,2.913-1.299,2.913c-0.797,0-1.293-1.091-1.293-2.842
				C173.582,120.733,174.092,119.592,174.881,119.592z"/>
			<path fill="#FFFFFF" d="M180.623,126.511h0.994c0.137,0,0.248-0.11,0.248-0.249v-7.584c0-0.14-0.111-0.25-0.248-0.25h-0.875
				c-0.043,0-0.084,0.011-0.119,0.032l-1.656,0.887c-0.1,0.053-0.152,0.168-0.125,0.28l0.199,0.78
				c0.018,0.078,0.068,0.137,0.139,0.168c0.072,0.031,0.152,0.028,0.223-0.008l0.974-0.525v6.22
				C180.375,126.4,180.486,126.511,180.623,126.511z"/>
			<path fill="#FFFFFF" d="M186.914,118.3c-1.783,0-2.889,1.608-2.889,4.196c0.022,2.556,1.08,4.145,2.754,4.145
				c1.832,0,2.889-1.55,2.889-4.252C189.67,119.829,188.641,118.3,186.914,118.3z M186.842,125.344
				c-0.797,0-1.289-1.092-1.289-2.842c0-1.769,0.508-2.91,1.299-2.91c1.119,0,1.293,1.778,1.293,2.839
				C188.145,123.521,187.975,125.344,186.842,125.344z"/>
			<path fill="#FFFFFF" d="M138.691,132.305c-1.779,0-2.887,1.604-2.887,4.192c0.024,2.556,1.084,4.146,2.756,4.146
				c1.836,0,2.887-1.551,2.887-4.246C141.451,133.831,140.418,132.305,138.691,132.305z M138.623,139.348
				c-0.795,0-1.291-1.088-1.291-2.845c0-1.765,0.512-2.909,1.301-2.909c1.119,0,1.291,1.78,1.291,2.842
				C139.924,137.525,139.756,139.348,138.623,139.348z"/>
			<path fill="#FFFFFF" d="M145.014,132.305c-1.783,0-2.887,1.604-2.887,4.192c0.021,2.556,1.078,4.146,2.756,4.146
				c1.832,0,2.887-1.551,2.887-4.246C147.77,133.831,146.74,132.305,145.014,132.305z M144.941,139.348
				c-0.797,0-1.291-1.088-1.291-2.845c0-1.765,0.51-2.909,1.303-2.909c1.123,0,1.291,1.78,1.291,2.842
				C146.244,137.525,146.074,139.348,144.941,139.348z"/>
			<path fill="#FFFFFF" d="M150.693,140.512h0.992c0.141,0,0.252-0.109,0.252-0.246v-7.586c0-0.138-0.111-0.248-0.252-0.248h-0.875
				c-0.039,0-0.08,0.01-0.117,0.029l-1.658,0.887c-0.1,0.057-0.152,0.17-0.125,0.284l0.199,0.779
				c0.02,0.075,0.072,0.137,0.143,0.167c0.068,0.031,0.15,0.029,0.219-0.01l0.973-0.525v6.223
				C150.443,140.4,150.557,140.512,150.693,140.512z"/>
			<path fill="#FFFFFF" d="M156.982,132.305c-1.779,0-2.89,1.604-2.89,4.192c0.027,2.556,1.084,4.146,2.759,4.146
				c1.832,0,2.891-1.551,2.891-4.246C159.742,133.831,158.709,132.305,156.982,132.305z M156.914,139.348
				c-0.797,0-1.293-1.088-1.293-2.845c0-1.765,0.51-2.909,1.303-2.909c1.117,0,1.291,1.78,1.291,2.842
				C158.215,137.525,158.047,139.348,156.914,139.348z"/>
			<path fill="#FFFFFF" d="M163.174,140.643c1.834,0,2.887-1.556,2.887-4.252c0-2.56-1.026-4.086-2.754-4.086
				c-1.783,0-2.889,1.604-2.889,4.192C160.439,139.053,161.496,140.643,163.174,140.643z M163.244,133.594
				c1.123,0,1.291,1.78,1.291,2.842c0,1.09-0.164,2.912-1.297,2.912c-0.797,0-1.293-1.088-1.293-2.845
				C161.941,134.738,162.455,133.594,163.244,133.594z"/>
			<path fill="#FFFFFF" d="M169.977,132.432h-0.875c-0.039,0-0.08,0.01-0.117,0.029l-1.655,0.887
				c-0.101,0.057-0.154,0.17-0.127,0.284l0.198,0.779c0.021,0.075,0.074,0.137,0.144,0.167c0.072,0.031,0.151,0.029,0.222-0.01
				l0.975-0.525v6.223c0,0.137,0.109,0.246,0.246,0.246h0.992c0.137,0,0.248-0.109,0.248-0.246v-7.586
				C170.225,132.542,170.113,132.432,169.977,132.432z"/>
			<path fill="#FFFFFF" d="M175.273,132.305c-1.779,0-2.887,1.604-2.887,4.192c0.024,2.556,1.081,4.146,2.76,4.146
				c1.832,0,2.887-1.551,2.887-4.246C178.033,133.831,177,132.305,175.273,132.305z M175.205,139.348
				c-0.797,0-1.291-1.088-1.291-2.845c0-1.765,0.51-2.909,1.301-2.909c1.123,0,1.291,1.78,1.291,2.842
				C176.506,137.525,176.338,139.348,175.205,139.348z"/>
			<path fill="#FFFFFF" d="M138.691,146.305c-1.779,0-2.887,1.607-2.887,4.195c0.024,2.557,1.084,4.145,2.756,4.145
				c1.836,0,2.887-1.551,2.887-4.254C141.451,147.834,140.418,146.305,138.691,146.305z M138.623,153.354
				c-0.795,0-1.291-1.09-1.291-2.845c0-1.771,0.512-2.911,1.301-2.911c1.119,0,1.291,1.779,1.291,2.84
				C139.924,151.525,139.756,153.354,138.623,153.354z"/>
			<path fill="#FFFFFF" d="M144.883,154.645c1.834,0,2.889-1.557,2.889-4.254c0-2.557-1.028-4.086-2.756-4.086
				c-1.781,0-2.887,1.607-2.887,4.195C142.148,153.057,143.205,154.645,144.883,154.645z M144.953,147.598
				c1.123,0,1.295,1.779,1.295,2.84c0,1.09-0.168,2.916-1.301,2.916c-0.797,0-1.293-1.09-1.293-2.845
				C143.65,148.738,144.16,147.598,144.953,147.598z"/>
			<path fill="#FFFFFF" d="M149.252,148.58c0.068,0.031,0.15,0.025,0.219-0.01l0.973-0.524v6.222c0,0.137,0.113,0.248,0.25,0.248
				h0.992c0.142,0,0.252-0.111,0.252-0.248v-7.584c0-0.138-0.11-0.248-0.252-0.248h-0.875c-0.039,0-0.08,0.008-0.117,0.026
				l-1.657,0.888c-0.101,0.055-0.152,0.168-0.125,0.282l0.198,0.78C149.129,148.486,149.182,148.55,149.252,148.58z"/>
			<path fill="#FFFFFF" d="M156.432,154.268c0,0.137,0.109,0.248,0.25,0.248h0.992c0.137,0,0.248-0.111,0.248-0.248v-7.584
				c0-0.141-0.111-0.248-0.248-0.248h-0.877c-0.041,0-0.082,0.008-0.115,0.026l-1.658,0.888c-0.104,0.053-0.151,0.168-0.125,0.279
				l0.195,0.783c0.023,0.074,0.072,0.138,0.145,0.165c0.07,0.034,0.156,0.03,0.222-0.007l0.974-0.524v6.222H156.432z"/>
			<path fill="#FFFFFF" d="M162.84,154.645c1.836,0,2.887-1.557,2.887-4.254c0-2.557-1.024-4.086-2.752-4.086
				c-1.783,0-2.891,1.607-2.891,4.195C160.105,153.057,161.164,154.645,162.84,154.645z M162.912,147.598
				c1.123,0,1.291,1.779,1.291,2.84c0,1.09-0.166,2.916-1.297,2.916c-0.797,0-1.295-1.09-1.295-2.845
				C161.607,148.738,162.121,147.598,162.912,147.598z"/>
			<path fill="#FFFFFF" d="M169.643,146.436h-0.873c-0.041,0-0.082,0.008-0.119,0.026l-1.657,0.888
				c-0.101,0.053-0.152,0.168-0.123,0.279l0.198,0.783c0.019,0.074,0.07,0.138,0.14,0.165c0.071,0.034,0.151,0.03,0.222-0.007
				l0.975-0.524v6.218c0,0.141,0.111,0.252,0.248,0.252h0.992c0.137,0,0.246-0.111,0.246-0.252v-7.58
				C169.893,146.543,169.779,146.436,169.643,146.436z"/>
			<path fill="#FFFFFF" d="M174.941,146.305c-1.779,0-2.887,1.607-2.887,4.195c0.022,2.557,1.082,4.145,2.758,4.145
				c1.832,0,2.887-1.551,2.887-4.254C177.699,147.834,176.668,146.305,174.941,146.305z M174.873,153.354
				c-0.797,0-1.291-1.09-1.291-2.845c0-1.771,0.51-2.911,1.299-2.911c1.123,0,1.291,1.779,1.291,2.84
				C176.172,151.525,176.004,153.354,174.873,153.354z"/>
			<path fill="#FFFFFF" d="M181.262,146.305c-1.783,0-2.889,1.607-2.889,4.195c0.023,2.557,1.082,4.145,2.754,4.145
				c1.834,0,2.887-1.551,2.887-4.254C184.018,147.834,182.988,146.305,181.262,146.305z M181.189,153.354
				c-0.795,0-1.291-1.09-1.291-2.845c0-1.771,0.512-2.911,1.301-2.911c1.123,0,1.295,1.779,1.295,2.84
				C182.494,151.525,182.322,153.354,181.189,153.354z"/>
			<path fill="#FFFFFF" d="M187.934,146.436h-0.873c-0.041,0-0.082,0.008-0.119,0.026l-1.657,0.888
				c-0.101,0.053-0.152,0.168-0.123,0.279l0.196,0.783c0.021,0.074,0.072,0.138,0.142,0.165c0.071,0.034,0.158,0.03,0.228-0.007
				l0.969-0.524v6.218c0,0.141,0.111,0.252,0.248,0.252h0.992c0.137,0,0.25-0.111,0.25-0.252v-7.58
				C188.184,146.543,188.07,146.436,187.934,146.436z"/>
			<path fill="#FFFFFF" d="M145.346,160.309c-1.783,0-2.887,1.604-2.887,4.192c0.021,2.558,1.08,4.146,2.756,4.146
				c1.832,0,2.887-1.551,2.887-4.252C148.102,161.835,147.072,160.309,145.346,160.309z M145.273,167.354
				c-0.795,0-1.291-1.088-1.291-2.842c0-1.769,0.514-2.912,1.305-2.912c1.123,0,1.291,1.781,1.291,2.842
				C146.578,165.527,146.406,167.354,145.273,167.354z"/>
			<path fill="#FFFFFF" d="M151.996,160.309c-1.779,0-2.889,1.604-2.889,4.192c0.022,2.558,1.082,4.146,2.756,4.146
				c1.83,0,2.887-1.551,2.887-4.252C154.756,161.835,153.723,160.309,151.996,160.309z M151.926,167.354
				c-0.797,0-1.291-1.088-1.291-2.842c0-1.769,0.512-2.912,1.299-2.912c1.123,0,1.295,1.781,1.295,2.842
				C153.229,165.527,153.061,167.354,151.926,167.354z"/>
			<path fill="#FFFFFF" d="M158.672,160.436h-0.877c-0.041,0-0.082,0.01-0.115,0.031l-1.658,0.887
				c-0.102,0.054-0.151,0.168-0.125,0.283l0.197,0.777c0.021,0.077,0.07,0.137,0.143,0.168c0.072,0.029,0.158,0.027,0.226-0.01
				l0.968-0.525v6.221c0,0.139,0.11,0.25,0.252,0.25h0.991c0.138,0,0.248-0.111,0.248-0.25v-7.582
				C158.92,160.547,158.809,160.436,158.672,160.436z"/>
			<path fill="#FFFFFF" d="M163.969,160.309c-1.781,0-2.887,1.604-2.887,4.192c0.021,2.558,1.08,4.146,2.754,4.146
				c1.828,0,2.887-1.551,2.887-4.252C166.725,161.835,165.695,160.309,163.969,160.309z M163.898,167.354
				c-0.797,0-1.291-1.088-1.291-2.842c0-1.769,0.51-2.912,1.299-2.912c1.123,0,1.295,1.781,1.295,2.842
				C165.201,165.527,165.029,167.354,163.898,167.354z"/>
			<path fill="#FFFFFF" d="M138.758,174.007c-1.779,0-2.887,1.604-2.887,4.193c0.025,2.557,1.082,4.147,2.756,4.147
				c1.832,0,2.887-1.554,2.887-4.252C141.516,175.534,140.484,174.007,138.758,174.007z M138.689,181.053
				c-0.797,0-1.291-1.092-1.291-2.843c0-1.765,0.51-2.909,1.301-2.909c1.119,0,1.289,1.779,1.289,2.842
				C139.988,179.229,139.82,181.053,138.689,181.053z"/>
			<path fill="#FFFFFF" d="M145.078,174.007c-1.783,0-2.887,1.604-2.887,4.193c0.021,2.557,1.08,4.147,2.756,4.147
				c1.832,0,2.887-1.554,2.887-4.252C147.834,175.534,146.805,174.007,145.078,174.007z M145.006,181.053
				c-0.795,0-1.289-1.092-1.289-2.843c0-1.765,0.51-2.909,1.303-2.909c1.123,0,1.291,1.779,1.291,2.842
				C146.311,179.229,146.139,181.053,145.006,181.053z"/>
			<path fill="#FFFFFF" d="M151.75,174.135h-0.873c-0.041,0-0.082,0.01-0.119,0.031l-1.658,0.891
				c-0.1,0.053-0.152,0.164-0.123,0.285l0.199,0.774c0.018,0.081,0.07,0.137,0.143,0.165c0.068,0.033,0.148,0.031,0.218-0.01
				l0.976-0.525v6.223c0,0.137,0.11,0.247,0.247,0.247h0.992c0.142,0,0.252-0.11,0.252-0.247v-7.585
				C152.002,174.247,151.891,174.135,151.75,174.135z"/>
			<path fill="#FFFFFF" d="M157.049,174.007c-1.779,0-2.889,1.604-2.889,4.193c0.025,2.557,1.084,4.147,2.758,4.147
				c1.832,0,2.889-1.554,2.889-4.252C159.807,175.534,158.775,174.007,157.049,174.007z M156.98,181.053
				c-0.797,0-1.295-1.092-1.295-2.843c0-1.765,0.51-2.909,1.303-2.909c1.117,0,1.291,1.779,1.291,2.842
				C158.279,179.229,158.111,181.053,156.98,181.053z"/>
			<path fill="#FFFFFF" d="M163.369,174.007c-1.783,0-2.887,1.604-2.887,4.193c0.021,2.557,1.08,4.147,2.752,4.147
				c1.83,0,2.887-1.554,2.887-4.252C166.125,175.534,165.096,174.007,163.369,174.007z M163.297,181.053
				c-0.795,0-1.291-1.092-1.291-2.843c0-1.765,0.512-2.909,1.301-2.909c1.123,0,1.295,1.779,1.295,2.842
				C164.602,179.229,164.43,181.053,163.297,181.053z"/>
			<path fill="#FFFFFF" d="M170.041,174.135h-0.873c-0.041,0-0.082,0.01-0.119,0.031l-1.654,0.891
				c-0.1,0.053-0.156,0.164-0.127,0.285l0.197,0.774c0.023,0.081,0.074,0.137,0.145,0.165c0.07,0.033,0.152,0.031,0.222-0.01
				l0.974-0.525v6.223c0,0.137,0.108,0.247,0.245,0.247h0.992c0.138,0,0.25-0.11,0.25-0.247v-7.585
				C170.291,174.247,170.178,174.135,170.041,174.135z"/>
			<path fill="#FFFFFF" d="M175.34,174.007c-1.779,0-2.887,1.604-2.887,4.193c0.023,2.557,1.082,4.147,2.758,4.147
				c1.832,0,2.887-1.554,2.887-4.252C178.098,175.534,177.064,174.007,175.34,174.007z M175.27,181.053
				c-0.795,0-1.289-1.092-1.289-2.843c0-1.765,0.511-2.909,1.299-2.909c1.123,0,1.291,1.779,1.291,2.842
				C176.57,179.229,176.402,181.053,175.27,181.053z"/>
			<path fill="#FFFFFF" d="M200.162,104.297c-1.779,0-2.887,1.605-2.887,4.193c0.024,2.557,1.082,4.146,2.756,4.146
				c1.836,0,2.889-1.552,2.889-4.252C202.92,105.824,201.889,104.297,200.162,104.297z M200.094,111.341
				c-0.797,0-1.293-1.093-1.293-2.843c0-1.766,0.51-2.91,1.299-2.91c1.123,0,1.293,1.781,1.293,2.842
				C201.393,109.52,201.227,111.341,200.094,111.341z"/>
		</g>
	</g>
</g>
</svg>
