<?xml version="1.0" encoding="utf-8"?>
<!DOCTYPE svg PUBLIC "-//W3C//DTD SVG 1.1//EN" "http://www.w3.org/Graphics/SVG/1.1/DTD/svg11.dtd">
<svg version="1.1" id="Layer_1" xmlns="http://www.w3.org/2000/svg" xmlns:xlink="http://www.w3.org/1999/xlink" x="0px" y="0px"
	 width="256px" height="256px" viewBox="0 0 256 256" enable-background="new 0 0 256 256" xml:space="preserve">

	<g class="hexa-inner">
    <path fill="#FFFFFF" d="M128,0L17.823,63.999v128L128,256l110.177-64.001v-128L128,0z M231.33,187.926L128,247.856L24.67,187.926V68.075L128,8.14l103.33,59.936V187.926z"/>
	</g>
  <g class="hexa-outer">
    <path fill="#FFFFFF" d="M29.567,70.896v114.208L128,242.197l98.431-57.094V70.896L128,13.8L29.567,70.896z"/>
  </g>
	<g class="inner">
		<path fill="#FFFFFF" d="M79.374,127.35l-13.895-6.94v-2.264l13.895-7.856v3.803l-9.571,5.02l9.571,4.453V127.35z"/>
		<path fill="#FFFFFF" d="M95.981,107.233l-7.627,23.164h-3.878l7.627-23.164H95.981L95.981,107.233z"/>
		<path fill="#FFFFFF" d="M97.348,123.56l9.57-4.453l-9.57-5.022v-3.803l13.897,7.858v2.267l-13.897,6.938V123.56L97.348,123.56z"/>
		<path fill="#FFFFFF" d="M171.825,131.674l0.001,34.614c0,0.421-0.348,0.772-0.773,0.772H61.575c-0.427,0-0.774-0.354-0.774-0.772
			V102.55c0-0.423,0.347-0.771,0.774-0.771h76.196V94.72H61.872c-4.681,0-8.478,3.796-8.478,8.479v62.439
			c0,4.686,3.797,8.483,8.478,8.483h41.736v12.644H86.324c-2.934,0-5.314,2.385-5.314,5.315c0,2.938,2.38,5.313,5.314,5.313h59.943
			c2.936,0,5.313-2.379,5.313-5.313c0-2.933-2.386-5.315-5.313-5.315h-17.252v-12.644h41.737c4.683,0,8.479-3.797,8.479-8.483
			v-33.966L171.825,131.674L171.825,131.674z"/>
		<rect x="160.027" y="105.592" fill="#FFFFFF" width="10.74" height="10.741"/>
		<polygon fill="#FFFFFF" points="181.508,95.105 191.994,95.105 191.994,84.366 181.254,84.366 181.254,94.853 170.768,94.853 
			170.768,105.592 181.508,105.592 		"/>
		<rect x="170.516" y="73.625" fill="#FFFFFF" width="10.739" height="10.74"/>
		<rect x="149.288" y="94.853" fill="#FFFFFF" width="10.739" height="10.74"/>
		<rect x="181.382" y="105.72" fill="#FFFFFF" width="10.739" height="10.74"/>
		<rect x="202.859" y="114.002" fill="#FFFFFF" width="10.742" height="10.74"/>
		<rect x="192.121" y="94.853" fill="#FFFFFF" width="10.74" height="10.74"/>
		<rect x="205.697" y="81.275" fill="#FFFFFF" width="10.74" height="10.74"/>
		<rect x="195.161" y="61.467" fill="#FFFFFF" width="10.739" height="10.74"/>
	</g>
</svg>
